<?xml version="1.0" encoding="utf-8"?>
<!-- Generator: Adobe Illustrator 24.2.0, SVG Export Plug-In . SVG Version: 6.00 Build 0)  -->
<svg version="1.1" id="carte" xmlns="http://www.w3.org/2000/svg" xmlns:xlink="http://www.w3.org/1999/xlink" x="0px" y="0px"
	 viewBox="0 0 314.57 310.12" style="enable-background:new 0 0 314.57 310.12;" xml:space="preserve">
<style type="text/css">
	.st0{opacity:0.4;}
	.st1{fill:#FFED00;}
	.st2{fill:#FFF133;}
	.st3{fill:#FFF466;}
	.st4{fill:#FFF899;}
	.st5{fill:#FFFBCC;}
	.st6{fill:#D9F1FB;}
	.st7{fill:#99D9F4;}
	.st8{fill:#66C5EE;}
	.st9{fill:#33B2E9;}
	.st10{fill:#009FE3;}
	.st11{fill:none;stroke:#CCCCCC;stroke-miterlimit:10;stroke-dasharray:3;}
	.st12{fill:none;stroke:#808080;stroke-width:2;stroke-miterlimit:10;stroke-dasharray:3;}
</style>
<g id="Fond" class="st0">
	<path class="st1" d="M311.7,291.5h0.4l-0.55,0.79l-0.33,0.34l-0.12,0.27v1l-0.19,2.05l0.19,2v2.15l-0.07,0.15l-0.16,0.07
		l-0.22,0.19l-0.2,0.26l-0.11,0.29h0.3l-0.06,0.52l-0.11,0.33l-0.2,0.15h-0.23h-0.21l-0.07,0.17l0.1,0.44l-0.29-0.14l-0.33-0.08
		h-0.32h-0.25v0.26l-0.21,0.29l-0.13,0.27l0.3,0.2l0.72-0.3l0.44-0.08l0.2,0.27l-0.08,0.42l-0.21,0.35l-0.31,0.24l-0.39,0.09
		l-0.21,0.14l-0.16,0.3l-0.23,0.29l-0.37,0.07l0.08,0.21v0.2v0.2l-0.08,0.21l0.25,0.1l0.06,0.23l-0.09,0.26l-0.22,0.19l0.13,0.22
		l-0.33,0.22l-0.6,0.4h-0.38v0.22l0.21,0.17l0.06,0.23l-0.06,0.22l-0.21,0.18v0.19l0.25-0.11l0.35-0.33l0.27-0.17l-0.08,0.44
		l-0.17,0.5l-0.19,0.44l-0.16,0.24l-0.36,0.2l-0.28-0.1l-0.54-0.5l-0.35-0.15l-0.68-0.1l-0.56-0.25l0.23-0.76l0.11-0.1l0.2-0.06
		l-0.35-0.32l-0.53-0.22l-0.32-0.26l0.29-0.42v-0.18l-0.25,0.09l-0.65,0.51l-0.15-0.2l0.05-0.06l0,0l0,0v-0.1l-0.23,0.07l-0.09,0.05
		l-0.13,0.1l-0.15-0.22l-0.23-0.2l-0.55-0.17l-0.54-0.09l-0.33,0.08l-0.24-0.17l-0.18-0.19l-0.22-0.17l-0.5-0.12l-0.06-0.1
		l-0.05-0.13l-0.12-0.12l-0.2-0.06h-0.18h-0.17l-0.2-0.14l0.3-0.2v-0.18l-0.27-0.1l-0.16-0.1h-0.21l-0.3-0.08l-0.28-0.13l-0.12-0.12
		l0.1-0.57l-0.07-0.2l-0.33-0.13l0.16-0.38l0.14-0.6l0.22-0.41l0.38,0.19l1.17-0.54l0.19-0.18l0.1-0.41l0.24-0.2l0.3-0.18l0.27-0.32
		h-0.52l-1.37-0.4h-0.53l-0.52-0.09l-0.28-0.3l0.2-0.59h-0.55l-0.89,0.35h-0.52l0.05-0.11l0.11-0.28h-0.31l-0.23-0.06l-0.23-0.1
		l-0.28-0.08l0.29-0.14l0.61-0.1l0.29-0.16l0.18-0.25l0.1-0.3v-0.28l-0.24-0.16v-0.17h0.5l0.44-0.15l0.72-0.43l-0.11-0.28
		l-0.17-0.19l-0.22-0.11h-0.25l0.72-0.24l0.18-0.17l-0.06-0.06l-0.08-0.2l-0.08-0.17h-0.08l0.26-0.42l0,0l0.06-0.15l0.19-0.25
		l0.05-0.19h-0.05l-0.25-0.18l-0.13-0.27l-0.1-0.17l-0.14-0.11l-0.23-0.06l-0.44,0.05l-0.75,0.41l-0.47,0.15l-0.91,0.06l-0.38,0.09
		l-0.34,0.23l-0.16-0.38l0.25-0.49l-0.09-0.41l-0.62-0.73l1.08-0.11l0.43-0.18l0.3-0.52l-0.16-0.12h16.86L311.7,291.5z"/>
	<path class="st1" d="M309.76,261.97l0.07-0.29h2.1l0.08,0.07l0.42,0.23v0.23l-0.18,0.24v0.32l0.11,0.35l0.25,0.3l-0.1,0.56
		l0.41,2.74v0.9l-0.7,2.8v0.36l-0.05,0.42v0.87v0.07l-0.07,0.08l-0.06,0.1v0.14l0.06,0.08l0.1,0.06h0.1l0,0l0.06,0.27l0.05,0.17
		v0.16l-0.11,0.24l0.18,0.14l0.07,0.2l0.06,0.23l0.14,0.24l0.17,0.15l0.59,0.26l-0.06-0.43l-0.09-0.2l-0.33-0.78l0.63,0.95
		l0.21,0.52l0.09,0.57l-0.05,1.73l0.07,0.9l0.28,0.63l-0.13,0.39l-0.1,0.41l-0.06,0.47v0.56l0.1,0.61l0.41,1.16l0.09,0.58l-0.16,3.7
		l0.16,0.7l-0.06,0.24v0.52l-0.05,0.23l-0.16,0.27l-0.59,0.56l-0.23,0.38l-0.34,0.73l-1,1.4h-17.31l-0.12-0.08l0.19-0.34l0.43-0.33
		l0.48-0.14l0.11-0.09l0.59-0.31h0.11v-0.36l-0.13-0.21l-0.34-0.25l-0.38-0.85l-0.15-0.26l-0.23-0.05l-0.61,0.17l-0.13-0.12
		l-0.16-0.38l-0.4-0.23l-0.5-0.11h-0.45l0.11-0.28l0.06-0.11l-0.17-0.15l-0.18-0.08h-0.19h-0.21h0.22l0.18-0.1l0.35-0.24v-0.26
		h-0.62v-0.2l0.26-0.11l0.09-0.28l-0.09-0.3l-0.26-0.12l0.19-0.34l-0.19-0.17l-0.29-0.1l-0.16-0.11l0.1-0.28l0.22-0.06h0.58
		l0.17-0.09l0.16-0.13l0.21-0.12l0.88-0.17l0.3-0.14l0.23-0.17l0.13-0.06h0.09h0.06v-0.24l-0.33-0.26l0,0l-0.82-0.41l-0.05-0.12
		l-0.06-0.19l-0.1-0.12l-0.3,0.27h-0.13l-0.09-0.13v-0.21l0.11-0.11l0.65-0.4l-0.48-0.4h-0.46l-0.87,0.36l0.17-0.22l-0.14-0.25
		l-0.08-0.32v-0.3l0.06-0.29l0.19,0.15h0.19l0.19-0.13l0.15-0.2l0.27,0.16l0.09-0.13v-0.25l0.08-0.21l0.11-0.14v-0.13l0.1-0.1
		l0.71-0.11l0.19-0.19v-0.3v-0.36l0.24-0.37l0.09-0.24l-0.1-0.11h-0.27l-0.06-0.09v-0.13l0.18-0.75l0.29-0.34l0.37-0.18l0.42-0.11
		l-0.13-0.28l0.12-0.65l-0.15-0.29v-0.23l0.17,0.1h0.06v0.06l0.06,0.25l0.36-0.2l0.24,0.1l0.19,0.21l0.26,0.11l0.34-0.11l0.26-0.29
		l0.19-0.4l0.12-0.44l-0.16-0.2l0.82-0.05l1.39-0.73l2.45-0.53l0.7-0.36l0.07-0.58l1.18-1.32l0.24-0.19l0.51-0.08h0.52l0.24,0.07
		h0.2l1.13,0.33l0.46,0.26l0.16,0.15l0.13,0.19l0.11,0.25l0.2,0.58h0.16l0.78-1.36l0.32-0.87l-0.21-0.65l0.18-0.57l-0.12-0.53
		l-0.3-0.49l-0.35-0.46l0.59-0.83v-0.27l-0.15-0.28v-0.26l0.09-0.29l0.15-0.2l0.51-0.55l-0.07-0.15v-0.09v-0.12l0.07-0.26
		l-0.23-0.24l-0.14-0.48L309.76,261.97z M148.53,277.9l0.24,0.42h-0.07l-0.22,0.05h-0.06l-0.5-0.07l-0.29-0.23v-0.37l0.24-0.54
		l0.25-0.11l0.23,0.32L148.53,277.9z M172.83,261.68h0.31v0.15l-0.07,0.4l-0.08,0.17l-0.17,0.16l-0.11,0.32l-0.13,0.24l-0.25-0.09
		l-0.09-0.24l0.07-0.27l0.29-0.54l-0.47,0.07l-0.19,0.35l0.06,0.47l0.25,0.45l0.6,0.5l0.1,0.29l-0.35,0.34h-0.15l-0.31-0.16
		l-0.19-0.05l-0.09,0.16v0.69l-0.08,0.16l-0.26,0.13l-0.87,0.93l0.17,0.2l0.14,0.41l0.14,0.19l0.2,0.11h0.34l0.62,0.2l0.24,0.11
		l0.14,0.24l0.1,0.52v0.53v0.54l-0.26,1.52l-0.07,0.21l-0.13-0.11l-0.28-0.42l-0.22,0.31v0.26l0.09,0.23l0.15,0.22l0.1,0.05h0.3
		l0.12,0.07l0.06,0.17v0.43l0.25,2.27l0.23,0.59l1.52,1.56l0.72,1v0.73v0.19l-1.49,0.26h-0.57l-0.56-0.06l-0.45-0.14l-0.27-0.17
		l-0.21-0.23l-0.17-0.28l-0.14-0.33h-0.15h-0.64l-0.23-0.06l-0.38,0.25l-0.71-0.27l-0.72,0.56l-0.36,0.06h-0.44h-0.35l-0.35,0.21
		l-0.67,0.65l-0.35,0.22l-0.45,0.07l-0.86-0.13h-0.45l-0.39,0.2l-0.92,0.73l-0.18,0.26l0.2,0.57l0.27,0.31v0.12h-0.59l-0.48-0.09
		l-1-0.35h-0.43l-0.17,0.16l-0.18,0.48l-0.15,0.14h-0.23l-0.24-0.08l-0.45-0.25l-0.4-0.11l-0.43-0.34l-0.34-0.46l-0.16-0.49h-0.35
		l-0.68-0.15l-1.28-0.61l-0.26-0.22l-0.61-0.34l-0.69,0.07l-1.38,0.5l-1-0.13l-0.35,0.16l-0.11,0.16l-0.16,0.44l-0.11,0.17
		l-0.52,0.4l-0.37,0.4l-0.25,0.17l-0.36,0.09l-0.57,0.06h-0.3l-0.27-0.18l-0.43-0.38l-0.21-0.46l-0.29-1.11l-0.3-0.5l-0.34-0.15
		h-0.41l-0.51-0.12l-1.23-0.85l-0.46-0.2l-1.36-0.18l-0.41-0.17v-0.09v-0.08v-0.06h-0.07l0.08-0.75l0.24-0.62l0.4-0.39l0.55-0.05
		l-0.27-0.4l-0.51-0.16l-0.35-0.22l0.19-0.61l-2.49-0.25l-0.24-0.11l-1.19-0.82h-0.34l-0.64,0.25h-0.7l-0.33,1.17l-0.49,0.2
		l-0.32-0.41l-0.36-1l-0.43-0.59l-0.38-0.7l-0.19-0.1h-0.2l-0.11-0.12l0.09-0.42l-0.62-0.29h-2.7l-0.74,0.24h-0.24l-0.37-0.27
		l-0.23-0.41l-0.16-0.47l-0.22-0.43l-0.39-0.35l-0.45-0.14l-1.87-0.13l-0.17-0.1l-0.36-0.3l-0.19-0.07l-0.22,0.07l-0.21,0.17
		l-0.21,0.11l-0.23-0.1l-0.35-0.35l-0.19-0.15l-0.65-0.25l-0.95-0.57l-0.38-0.06h-0.42l-0.39-0.09l-0.71-0.35h-0.39h-0.6l-0.5,0.2
		l-0.11,0.43l0.05,0.64l-0.31,0.84l0.24,0.34l-0.16,0.13l-0.08,0.12l-0.14,0.3l0.32,0.11l0.26,0.33l0.15,0.45v0.49l-0.19,0.31
		l-0.28,0.11l-0.78-0.11l-2.73,0.09l-0.37-0.16l-0.83,0.22h-0.43l-0.44-0.09l-0.11-0.1v-0.25l-0.05-0.1l-0.61-0.52l-0.4,0.15
		l-0.38,0.39l-0.62,0.87l-0.33,0.05l-0.34-0.41l-0.47-0.83l-0.35-0.18l-1.16-0.31l-0.36,0.06l-0.41,0.28l-1.35,0.2l-1.69,0.63
		l-0.76,0.07l-0.86-0.35l-0.13-0.13l-0.1-0.15l-0.15-0.13l-0.28-0.08l-0.23-0.11l-0.06-0.19v-0.21l-0.14-0.17l-0.36-0.3l-0.26-0.44
		l-0.13-0.52v-0.52l-0.4,0.17l-0.63,0.17l-0.59-0.07l-0.26-0.55l-1.32-0.81l-0.34-0.32l-0.12,0.29l-0.15,0.23l-0.17,0.07l-0.19-0.2
		l-1.06,0.84l-0.53,0.32h-0.67l-1.18-0.55h-0.56v0.71l-0.19,0.07l-0.37,0.25h-0.17l-0.21-0.14v-0.18v-0.19l-0.12-0.18h-0.1h-0.36
		l-0.14-0.07v-0.11l0.05-0.13v-0.13l-0.85-1.15l-0.39-0.33l-0.75-0.47h-0.22h-0.21H89l-0.22-0.22l-0.13-0.28v-0.16l0.07-0.13v-0.22
		l-0.41-1.06l-0.58-0.21l-1.7,0.31l-1.74-0.15l-0.84-0.27l-0.76-0.58l-0.27-0.31l-0.37-0.11l-0.75-0.09l-0.17-0.14l-0.09-0.06h91.79
		V261.68z M148.83,278.32l-0.24-0.42l-0.22-0.5l-0.23-0.32l-0.25,0.11l-0.24,0.54v0.37l0.29,0.23l0.5,0.07h0.06l0.22-0.05
		L148.83,278.32z"/>
	<path class="st2" d="M240.12,261.69h1.51l-0.1,0.14l-0.31,0.15l-0.3,0.1l-0.27-0.1L240.12,261.69z M241.52,261.69h0.11l0.15-0.19
		v-0.43l-0.08-0.16l-0.08,0.1l-0.18,0.17l-0.12,0.06h-0.07h-0.07l-0.07,0.1l-0.19,0.11h-0.61l-0.23,0.11v0.16h1.4L241.52,261.69z
		 M310.24,261.69h-0.41v-0.11l0.36-0.23h0.91l0.39-0.17l0.29,0.41l0.12,0.11h-1.69L310.24,261.69z M271.49,231.37H75.33l-0.66,3.38
		l-0.52,1.75l-0.9,5l-0.53,1.73l-0.15,0.95l-0.35,1.13l-0.17,0.35l-1.16,0.91l-0.18,0.24l-0.1,0.34l-0.48,0.94l-0.19,0.26l-0.41,0.3
		l-0.49,0.27l-0.51,0.19l-1.94,0.31l-0.4,0.17l-0.17,0.23l-0.34-0.25l-0.13,0.84v1l0.63,0.31l0.27,0.38l0.08,0.58l0.11,0.25h0.23
		l0.26-0.13l0.47-0.06l0.45-0.19h0.2l0.41,0.2l0.22,0.16v0.14l-0.06,0.18v0.27l0.16,0.51l0.11,0.14l0.27,0.13h0.24h0.27l0.24-0.14
		l0.13-0.27l0.17-0.51l0.33-0.2h0.43l0.68,0.21l0.92,0.48h0.24l0.24-0.09h0.27l0.63,0.66l0.08,1.1l-0.24,1.2l-0.33,1l-0.28,0.37
		l-0.9,1l-0.18,0.26l0.27,0.65l0.4,0.45l0.49,0.28l0.53,0.15l0.6,0.05l0.38-0.12l0.18-0.41l0.06-0.79l0.15-0.6l0.37-0.43l0.5-0.19
		l0.49,0.13l-0.46,0.4l-0.17,0.39l0.09,0.41l0.37,0.43l0.42,0.25l1.27,0.23l0.75,0.42l0.72,0.59l0.82-0.08l0.19,0.08l0.27,0.17
		h92.09v-0.62l0.1-0.31l0.42-0.47l0.1-0.37l-0.17-0.27l-0.36-0.23l-0.37-0.41l-0.16-0.83l0.1-0.22l0.27-0.09h0.6l0.1,0.1l-0.2,0.22
		l-0.43,0.31v0.19l0.31,0.17l0.13,0.2l0.1,0.11l0.21-0.05l0.62-0.94l0.12-0.36l0.27-0.32l0.52-0.46l0.16-0.29l0.21-0.57l0.15-0.27
		l0.36-0.46l3-2.32l0.79-0.4l0.53-0.1l0.87,0.44l0.46-0.21l1.81-2.23l0.71-0.6l2.48-1.35l4.37-3.63v-0.22l-0.75,0.25l-0.66,0.56
		l-1.02,1.14l-1.12,1l-0.72,0.38h-0.74v-0.19l1.84-0.78l0.29-0.36l0.06-0.47l0.16-0.29l1.43-1.2l0.59-0.36l1.36-0.42l1-0.72
		l0.65-0.22l1.23-0.18l-0.21,0.45l-0.27,0.3l-0.37,0.18l-0.5,0.12l-1,0.1l-0.48,0.15l-0.29,0.38l0.74-0.35l1.33-0.15l1.27,0.13
		l0.56,0.48v0.1l0.43,1.61l0.12,0.26l0.16,0.19l0.47,0.24l0.53,0.11l6.78,0.23l1,0.2l0.57,0.46v0.53l-0.16,0.63l-0.2,0.52
		l-0.06,0.22l0.6,0.3l0.89,0.25l3.22,0.15l0.78-0.31l-0.53-0.58l-0.67-0.48l-0.59-0.62l-0.31-1v-2.17l-0.09-0.32l-0.66-1.05v-0.19
		l0.38,0.23l0.31,0.45l0.22,0.52l0.14,0.46l0.06,0.52l-0.06,1.77l0.34,0.8l0.74,0.71l0.91,0.52l0.85,0.25l-0.16-0.5l-0.21-0.18
		l-0.1-0.16l0.18-0.42l0.21-0.19l0.53-0.12l0.24-0.19l0.55-0.25l1.2,0.69l0.42-0.15l0.55,0.15l0.52-0.37l0.24-0.67l-0.26-0.76
		L215.4,247l-0.26-0.15l-0.2-0.25l-0.12-0.57v-0.23l0.11-0.41l0.14-0.41l0.15-0.19l0.13,0.08l0.31,0.44l0.1,0.1h0.51h0.17l0.46,0.15
		l0.11,0.16v0.25l0.16,0.47l0.47,0.55l0.56,0.1l0.61-0.22l0.64-0.43l0.08,0.72l-0.28,0.68l-0.45,0.55l-0.42,0.34l-0.61,0.19h-1.94
		l-0.68,0.39l-0.3,0.61l0.11,0.69l0.58,0.6l0.54,0.16h1.39l0.32-0.13l1,0.15l2.93-0.68l0.61,0.43v1.57l0.09,0.17l0.16,0.17l0.14,0.1
		h0.06v0.23l-0.06,0.19l-0.18,0.49l-0.16,0.31l-0.07,0.31l0.17,0.31l0.28,0.11h0.63l0.3,0.16l0.34-0.13h0.56l0.53,0.07l0.23,0.18
		l0.12,0.15l0.27-0.07l0.28-0.16l0.38-0.29l0.19,0.1l0.54,0.73l0.17,0.16l0.3,0.12l0.11,0.1l0.12,0.07h0.15l0.12-0.06l0.07-0.14
		v-0.15l0.07-0.06h1.13l0.43,0.23l-0.13,0.53l0.81,0.47l0.43,0.14h0.49l0.2,0.09l0.05,0.41l0.2,0.1h0.39l0.15,0.06l0.13,0.11
		l-0.71,0.37l-0.16,0.27l0.12,0.41l0.22,0.15l1.06,0.47h0.51l0.22-0.14l0.09-0.42l0.15-0.23h0.35l0.7,0.14v-0.21l-0.37-0.16
		l-0.46-0.53l-0.37-0.15l0.64-0.33l0.34-0.09h0.37l-0.06,0.15v0.29v0.18l0.53-0.22h0.67l0.64,0.16l0.42,0.29l0.14,0.1l1.59,0.09
		l0.19,0.14v0.3l-0.13,0.5l-0.11,0.1h-0.77v0.18l0.4,0.09h1.47l0.37-0.11v-0.18h-0.18l-0.15-0.05l-0.28-0.16l0.22-0.62l0.06-0.52
		l0.15-0.42l0.48-0.31l0.25-0.05l1.49,0.05h0.17l0.33,0.14h0.25l0.23,0.13l0.1,0.28l0.05,0.28l0.07,0.13h0.8l0.19-0.17l-0.32-0.48
		l0.12-0.22v-0.43l0.18-0.38l0.2-0.15l0.7-0.05l0.43-0.24l0.46-0.17h0.26l0.54,0.06h0.25l0.33-0.27l0.34-0.36l0.42-0.25l0.57,0.05
		l0.23,0.19l0.1,0.25l0.05,0.24l0.08,0.15h0.23l0.43-0.19l0.24-0.06l-0.15-0.41l0.91-0.73l0.14-0.2l-0.05-0.09l-0.11-0.11l-0.1-0.14
		v-0.17l0.05-0.29l0.07-0.11l0.08-0.08l0.1-0.14l0.2-0.51l-0.05-0.17l-2.11,0.11l-0.13-0.05v-0.26l0.34-0.27l0.58-0.31l0.48-0.09
		l0.21-0.22l0.1-0.33l0.19-0.4l0.36-0.31l0.33-0.12l0.26-0.19l0.16-0.9l0.16-0.55l0.24-0.53l0.28-0.31l0.43,0.35l0.56,0.14
		l1.12-0.06v-0.11l0.11-0.23l0.12-0.14l0.07,0.17v0.08h0.13h0.11h0.13l0.11-0.14v-0.41l0.07-0.09h0.16h0.08l0.05-0.06l0.8-1.39
		v-0.08l0,0v-0.49l0,0l0.28-0.48l0.34-0.27l0.35-0.21l0.36-0.28l0.5,0.21l0.54-0.18l0.56-0.29l0.58-0.16l0.07,0.11v0.21l0.08,0.15
		l0.2-0.05l0.11-0.12v-0.29v-0.23v-1.44l0.08-0.22l0.17-0.13l0.16-0.29l0.23-0.28l0.35-0.13h0.32l0.25-0.08l0.2-0.13l0.21-0.18
		l0.42-0.63l0.26-0.23l0.3,0.13h0.21l1.06-0.14l-0.09,0.29l-0.05,0.11l0.41-0.06l0.1-0.29v-0.37l0.2-0.3l0.37-0.09l0.05-0.4
		l0.33-0.37l0.43-0.17l0.49,0.29l0.15-0.23l0.21-0.09h0.23l0.15,0.05h0.12l0.18-0.09v-0.1v-0.39v-0.11h0.09h0.19l0.29-0.21
		l-0.44-1.47l-0.11-0.77l0.34-0.63l0.95-1.06l0.44-0.71l1.14-1l0.49-0.55l0.09-0.2h-0.84L271.49,231.37z"/>
	<path class="st3" d="M94.12,200.61l-0.08-0.07l0,0L94.12,200.61z M92.66,201v0.29l-0.06,0.49v0.65l0.1,0.65l0.18,0.5l0.29,0.23
		l-0.08-0.43l-0.08-0.88l-0.13-0.39l0.2-0.84l-0.24-0.67l-0.07-0.06h-0.4l0.06,0.07L92.66,201z M251.75,200.54h0.66l0.07,0.47v1.74
		l0.38,0.65l0.72,0.63l1.51,0.88l0.42,0.11l1.08-0.22h0.38l1.1,0.46l0.39,0.43l0.09,0.16l0.05,0.18v0.09v0.09v0.15l0,0l-0.11,0.49
		l0,0l0.25,0.67l0.12,0.76l0.08,0.27l0.67,1.27l0.12,0.4h-0.39l-0.79-0.24h-0.4l-0.51,0.28l-0.4,0.5l-0.16,0.63l0.25,0.65
		l-0.31,0.24l-0.75,1.31l-1.12,0.86l-0.23,0.42l0.07,1l0.49,0.86l0.67,0.71l0.57,0.48l-0.74,0.41l-0.15,0.26l-0.18,1l-0.06,0.19
		v0.15l0.08,0.29l0.09,0.14l0.48,0.57l0.17,0.3l0.26,0.62l0.13,0.23l0.19,0.21l0.44,0.32l0.2,0.24l0.14,0.3l0.07,0.29l0.1,0.26
		l0.21,0.24l0.29,0.12h0.26l0.26-0.09h0.3l0.27,0.08l1.29,0.7l0.88,0.32l2.33,1.45l0.41,0.17l0.58,0.1l0.28,0.11l0.16,0.22
		l0.11,0.26l0.21,0.2l0.21,0.05h0.88l3.82-1.1h0.63l0.9-0.6l0.68,0.12l-0.3,1l0.26,0.57l0.49,0.49l0.34,0.75v0.52l-0.25,0.33
		l-0.31,0.25l-0.24,0.27l-0.14,0.37l-0.18,0.69l-0.08,0.15h-197l0.11-0.57l1.41-8.68l0.6-4.31l0.16-1.92l-0.06-0.45l-0.19-0.87
		v-0.26l0.58-0.85l0.08-0.2l0.06-0.37l0.39-1.42l0.44-0.54h0.55l1.34,0.34l0.77-0.12l0.45-0.32v-0.6l-0.54-0.57h0.3l-0.22-0.44
		l-1.65-1.57l-0.24-0.1l-0.1-0.07l-0.09-0.09l-0.11-0.07h-0.15l-0.09,0.1l-0.05,0.13v0.13l-0.06,0.05l-0.14,0.29l-1,1.52l-0.24,1.36
		l-0.2,0.74l-0.14,0.35l1-11.55h14.1l0.06,0.07l0.18,0.39v0.29l-0.06,0.49v0.65l0.1,0.65l0.18,0.5l0.29,0.23l-0.08-0.43l-0.08-0.88
		l-0.13-0.39l0.2-0.84l-0.24-0.67l-0.07-0.06h1.22l0.08,0.07v-0.07h157.54L251.75,200.54z"/>
	<path class="st4" d="M93.1,200.54h-0.27l-0.42-0.44l-0.52-0.32h0.68l0.56,0.13l0.51,0.25l0.41,0.35h-0.94L93.1,200.54z
		 M77.26,169.16h-0.43l0.16,0.09L77.26,169.16z M77.26,169.16h0.38l0.26,0.27l0.09,0.4v0.36v0.31l0.25,0.23v0.22l-0.11,0.28
		l0.23,0.22l0.62,0.38l0.17,0.28v0.27l-0.18,1.33l-0.23,0.83l-0.32,0.5l-0.39-0.17l-0.31-1.1l-0.18-0.42l-0.24-0.44l-1.29-1.46
		l-0.46-0.34l-0.48-0.57l-0.36-0.61l0.1-0.28l0.05-0.33l-0.05-0.16h2l0.16,0.09L77.26,169.16z M79.21,200.54h13.21l-0.14-0.15
		l-0.7-0.42l-0.84-0.83l-0.75-1l-0.74-1.81l-0.09-0.35l-0.4-2.89l-0.3-1.17v-0.62l-0.26-0.94l-0.61-0.92l-2.66-3l-0.34-0.11
		l-0.92-0.52l-1.47-1.15l-0.19-0.24l-0.23-0.38l-0.07-0.17v-0.17v-0.16l0.06-0.11v-0.59l-0.05-0.14l-0.23-0.11l-0.35,0.13
		l-0.31,0.58l-0.75,1.53l-0.13,0.46l-0.4,6.6l-0.91,4.94l-0.33,3.76h0.89L79.21,200.54z M256.83,169.16H80.77l0.14,0.47l0.24,0.43
		l0.36,0.24l-0.11,0.09l-0.22,0.24l-0.12,0.1l0.13,0.17l0.17,0.28l0.12,0.32v0.33l-0.09,0.37l-0.14,0.07h-0.18h-0.2l-0.34,0.21
		l-0.25,0.22l-0.1,0.14l-0.11,0.19l-0.16,0.19l-0.24,0.13l0.18,0.33l0.15,0.46l0.1,0.47v0.36l0.12,0.29l0.56,0.68l2,1.61l0.49,0.56
		l-1.54-0.72l-0.26-0.25l-0.25-0.17l-1.39-1.67H79.4l-1.45,0.45v0.41l-0.37,2.19l0.39,0.16l0.77-0.17l0.41,0.31l0.26,0.36l0.32,0.32
		l0.35,0.22l0.42,0.09l0.66,0.27l1.17,1.18l0.73,0.27l0.14,0.13l0.08,0.59l0.08,0.14l3.11,2.27l1,1.17l0.49,0.79l0.44,0.88l0.73,2
		l0.29,1.21l0.83,6l0.28,1l0.4,0.81l0.78,0.61l1,0.31l0.87,0.44l0.51,0.91h158.32l-0.07-0.42l-0.57-0.42l-0.77-0.07l-0.23-0.2
		l-0.27-0.46l-0.06-0.28v-0.25v-0.22l-0.36-0.31l-0.39-0.59l0.26-0.36l0.4-0.33l0.76-0.44h0.2h0.39h0.17l0.19-0.11l0.4-0.31
		l0.16-0.08l0.77,0.13l0.81,0.43l0.79,0.29l0.71-0.35v-0.19l-0.13-0.15l-0.1-0.17l0.12-0.26l0.24-0.2h0.51h0.2l0.32-0.3l0.38-0.67
		l0.29-0.27l0.78-0.36l0.77-0.21l0.18,0.07l0.27,0.34h0.12l0.15-0.15l0.41-0.77l0.6-0.5v-0.49l-0.24-0.63l-0.11-0.91l0.12-0.18
		l0.7-0.85l0.46-0.82l0.19-0.48v-0.39l-0.17-0.13l-0.94-0.41l-0.29-0.23l-0.18-0.35l-0.15-0.39l-0.22-0.34l-0.95-0.73l-1-0.56
		l-0.17-0.46l-0.12-1.29l-0.09-0.24l-0.24-0.37v-0.25l0.06-0.26l0.25-0.55v-0.18l-0.13-0.47l-0.27-0.19l-0.71-0.18l-0.29-0.23
		l-0.5-0.49l-0.29-0.12l-0.58-0.11l-0.59-0.45l-0.44-0.67l-0.25-1.3l-0.06-0.57v-0.56l0.12-0.52l0.28-0.46l0.33-0.21l0.66-0.09
		v-0.07l0.06-0.14l0.09-0.15l0.11-0.08h0.08l0.18,0.12h0.08h0.15h0.54l0.47-0.14l0.49-0.25l0.45-0.38l0.3-0.5l0.13-0.43l0.18-0.38
		l0.23-0.29l0.32-0.15l-0.15-0.26l-0.12-0.32l-0.16-0.57l-0.25-0.66l-0.08-0.34l-0.1-0.07l-0.13-0.15h-1H256.83z"/>
	<path class="st5" d="M76.77,169.12h0.09h-2l-0.2-0.57l-0.48-1.1l0.68,0.09l0.74,0.39l0.69,0.56L76.77,169.12z M77.2,163.44
		l-0.42-0.5l-0.51-0.33l-2.2-0.36l-0.37-0.18v-0.23h0.31v-0.22l-0.53,0.13l-0.63,0.29h-0.58l-0.38-0.67h0.22l0.53,0.22l0.14-0.19
		v-0.19l-0.11-0.17l-0.16-0.12l-0.39-0.09l-1.27,0.33v0.19l0.24,0.18l0.89,1l0.34,0.14l1.22-0.23l2.13,1.38l1,0.19h0.1l0.11,0.12
		l0.23-0.13h0.16h0.2L77.2,163.44z M65.59,153.44l0.2,0.11l0.1-0.14v-0.23h-0.45L65.59,153.44z M77.3,169.14h0.34l0,0H77.3z
		 M237.13,153.14h-171v0.08l0.16,0.26l0.27,0.17l0.62,0.17l0.74,0.65l1.17,0.21l0.35,0.35l-0.18,0.39l0.59,0.2l1.46,0.06l0.61,0.12
		l0.5,0.35l0.35,0.59l0.13,0.8l0.24,0.68h0.55l1.17-0.37l0.29,0.12l0.5,0.43l0.67,0.41h0.22l0.36,0.1l0.39,0.61l0.42,0.51l0.59,0.17
		v-1l0.81-0.49l1,0.07l0.48,0.68l0.06,0.45l0.1,0.27v0.25l-0.18,0.41l-1.51,0.94l-0.23,0.52l0.11,0.61l-0.2,0.14l-0.22,0.27
		l-0.14,0.31v0.27l0.21,0.22h0.18h0.2l0.23,0.07h0.33h0.12v0.09v0.16v0.14l0.09,0.06h0.17l0.51,0.39l-0.26,0.26v0.13l0.13,0.11
		l0.13,0.15h0.08l0.28,0.09l0.08,0.05v0.13v0.29l0.16,0.43v0.32l0.08,0.26l0.42,0.16l0.14,0.11l0.13,0.15l0.09,0.14v0.2l-0.24,0.53
		l-0.3,0.27h-0.36l-0.46-0.32l0.17,0.57H257.9l-1.36-1.54l-0.5-0.22l-0.18,0.08l-0.16,0.16l-0.16,0.13h-0.21l-0.2-0.15v-0.1v-0.13
		v-0.24l0,0v-0.33v-0.31h-0.06l0.1-0.16l0.18-0.22l0.15-0.24v-0.25l-0.34-0.32l-1.74-0.39l-0.19-0.53l0.2-1.09l0.38-1.14l0.77-1.52
		l-0.49-0.86l-0.78-0.83l-0.42-0.73l0.12-0.36l0.58-0.69l0.15-0.53l-0.05-0.6l-0.2-0.32l-0.33-0.17l-3.27-0.85h-1.46l-1.4,0.28
		l-1.87,1.29l-0.71,0.18h-0.72l-0.68,0.22l-0.71,0.62l-0.63,0.83l-0.46,0.64l-0.12,0.43l0.09,0.32l0.21,0.54v0.13l0.21,0.52
		l0.09,0.14l0.23,0.12l0.37-0.17l0.15,0.07l0.11,0.73l-0.56,0.6l-1.41,0.94l-1.11,1.31l-0.72,0.37l-0.74-0.33h-1l-1,0.23l-0.52,0.32
		l0.3-0.64l0.17-0.32l0.06-0.27l-0.38-0.49l-0.23-0.44l0.08-0.38l0.53-0.34l1.32-0.65h0.11l0.17,0.06h0.26l0.49-0.15l0.09-0.21v-0.3
		v-0.34l0.16-0.9l0.07-0.25l0.71-1.6v-0.35l-0.27-0.48l-0.32-0.35l-1.18-0.73l0.25-0.24v-0.21v-0.22v-0.24v-0.1l-0.05-0.13v-0.15
		v-0.17l0.09-0.19l0.24-0.27l0.42-0.73h-1.49L237.13,153.14L237.13,153.14z"/>
	<path class="st6" d="M65.93,152.57l0.22,0.62h-0.32l0,0l-0.13-0.52v-0.4L65.93,152.57z M55.68,138.38l0.6-0.31l0.55,0.39l0.46,0.73
		l0.33,0.73l0.36,0.21l0.1-0.43v-0.65l-0.1-0.45l-0.24-0.24l-0.75-0.4l-0.22-0.26v-0.46l0,0h-1.54l0.18,0.66L55.68,138.38z
		 M54.68,146.76l0.49,0.2l-0.24-0.42l-0.41-0.31l-0.85-0.37l-0.43-0.07l-0.4,0.07l-0.17,0.29l0.25,0.59L54.68,146.76z
		 M239.68,151.62l-0.53-0.6l-0.07-0.42l0.3-0.39l2.95-2.72l1.57-0.86l0.22-0.19l0.57-0.65l0.73-0.39l0.23-0.17l0.25-0.32l0.08-0.26
		v-0.54l-0.16-0.18l-0.12-0.16l-0.06-0.18v-0.16l0.34-1l0.15-0.28l0.12-0.31v-0.44l-0.07-0.36l-0.29-0.56l-0.09-0.29l0.32-1.13
		l1.07-0.62l2.35-0.75l0.57-0.43H60.57l-0.28,0.89l-0.27,0.49l-0.84,0.52l-0.32,0.34l0.13,0.46l-0.56,0.41l-0.15,0.33v0.7v0.55
		l0.09,0.61l0.16,0.5l0.25,0.21l0.57,0.2l0.68,0.49l1.22,1.28l0.65,1.34l0.19,0.2h0.36l0.37,0.13l0.29,0.24l0.22,0.82l0.26,0.31
		l0.34,0.29l0.33,0.39l0.14,0.37l0.1,0.43l0.17,0.36l0.35,0.15l-0.1,0.55l0.49,2.35l0,0h0.42l0,0l-0.13-0.52v-0.4l0.21,0.35
		l0.22,0.62h172.4l0.35-0.59L239.68,151.62z"/>
	<path class="st7" d="M56.77,136.81l-0.08,0.41h-1.54l-0.16-0.58l-0.37-0.48l1.25-0.07l0.4,0.07l0.45,0.28L56.77,136.81z
		 M34.28,127.14l1.13,0.34l1.72,0.16l0.58-0.17l0.09-0.61l-0.22-0.25h-0.65l-0.26-0.13l-0.75-0.78l-0.06-0.09l-0.55-0.43l-1-0.52
		l-0.27-0.06l-0.2-0.2H33.7l-0.09,0.21l-0.19,0.18l0.13,0.47l0.24,0.52l0.17,0.53l-0.07,0.51L34.28,127.14z M271.49,104.67h0.49
		v0.94l-0.21,0.4l-0.58,0.62l-0.12,0.44v0.53v0.15l-0.14,0.33l-0.09,0.16l-0.15,0.14l-0.06,0.14v0.14v0.08v0.09v0.14l0.11,0.61
		l-0.05,0.37l-0.29,0.16l-0.13,0.16l-0.31,1.06l-0.06,0.45l0.27,1.15v0.53l-0.13,0.22l-0.36,0.39l-0.08,0.19l0.07,0.71l0.07,0.35
		l0.08,0.15l0.33,0.17l0.29,0.42l0.5,1l0.13,0.16l0.14,0.13l0.11,0.17l0.05,0.31l-0.05,0.12l-0.09,0.33l0,0l-0.77,0.28l-0.53,0.29
		l-0.95,0.79l0,0l0.36,0.28h0.08v0.38l-0.09,0.19l-0.18,0.06l-0.22-0.05l-0.13,0.07v0.1l0.05,0.13l0.15,0.22v0.09v0.08v0.09v0.06
		l-0.34,0.3h-0.28l-0.29-0.18l-0.34-0.12l-0.25,0.07v0.2l0.11,0.2l0.07,0.08l0.11,0.16v0.18l-0.07,0.3l-0.43,0.57l-0.61,0.25
		l-1.52-0.07l-0.58,0.13l-0.83,0.36h-0.15l-0.17-0.07l-0.09-0.12l-0.06-0.12l-0.09-0.07l-0.64-0.2l-0.48-0.29l-0.12-0.53l0.4-0.92
		l-0.6,0.06h-0.29l-0.29-0.17l-0.51-0.1l-1.1,0.19l-0.56-0.09l-0.2-0.15l-0.2-0.05l-0.2,0.05l-0.19,0.15l-0.41,0.13l0.05,0.36
		l0.23,0.45l0.1,0.39l-0.16,0.27l-0.33,0.28l-0.35,0.21l-0.58,0.13v0.61l-0.57,0.33l-0.32,0.43l-0.27,0.51l-0.11,0.41l2.61-0.25
		l0.4-0.2l0.33,0.27l0.33,0.3l0.22,0.33l-0.17,0.35l-0.2,0.14l-0.23,0.06l-0.23,0.13l-0.31,0.44h-0.12h-0.2l-0.41,0.43l-0.14,0.66
		l0.08,0.81l-1.49,1.09l-0.63,0.66l-0.42,0.7l-1.44,1.33l-0.64,0.2v0.56l-0.31,0.16l-0.08,0.06l-0.08,0.2l-0.55,0.2l-0.21,0.2
		l-0.29,0.52l0.26,0.6l-0.5,0.72l-0.9,0.69H60.57l0.09-0.27l0.26-0.57l0.38-0.29v-0.55l-0.24-0.57l-0.23-0.38l-0.35-0.34l-1.31-0.74
		l-2.53-0.45l-0.78-0.43l0.29-0.2l0.23-0.22l0.26-0.19l0.71-0.1l0.17-0.11l0.07-0.27l0.07-0.48v-0.43l-0.23-0.51l-0.06-0.49v-0.36
		l0.08-0.42l0.14-0.39l0.2-0.27l0.52-0.23l2-0.21l0.15-0.12l0.15-0.08h0.17l0.17,0.22l0.16,0.15l1.12,0.3h0.34l-0.15-0.22h0.26
		l0.23,0.07l0.21,0.14l0.2,0.21h-0.45v0.24l0.9,0.67l0.91,0.18l0.22,0.15l0.49,0.52l0.5,0.23h1.18l-0.44-0.3l-0.9-0.18l-0.38-0.31
		l-0.66-0.8l-0.77-0.64l-0.76-0.46l-0.44-0.15l-0.52-0.05l-0.19-0.08l-0.31-0.31l-0.83-0.25l-3,0.21l-0.69,0.43l-0.15,0.24
		l-0.09,0.21l-0.11,0.2l-0.23,0.21l-0.65,0.19l-0.52,0.52l-0.41,0.17h-0.43l-0.4-0.17l-0.32-0.29l-0.54-0.62l-0.35-0.21h-0.37h-0.2
		h-0.16l-0.18,0.15l-0.08,0.22v0.2v0.09h-0.64l-2-1.08v-0.24l0.5,0.08l1,0.45l0.49-0.08l0.38-0.45l-0.2-0.43l-0.44-0.44l-0.33-0.46
		l-0.17,0.09l-0.07,0.05l-0.06,0.07l0.1,0.23v0.13l-0.11,0.32h-0.17v-0.94l-0.26-0.5l-0.9-0.59l1.74-1.05h0.23l0.23,0.1l0.37,0.07
		l-0.05,0.18l0,0l-0.1,0.06l0.17,0.2l0.21-0.24l0.75-0.43l0.07-0.22l-0.33-0.06h-0.54l-0.36-0.14l0.2-0.46l-0.36-0.24h-0.46
		l-0.28-0.18l0.19-0.62l-0.32-0.42l0.25-0.22l1.37-0.08l0.8-0.22h0.45l-0.35-0.1l-0.59,0.11h-0.57l-1.68-0.67l-0.34-0.05h-0.29
		l-0.71,0.25h-0.83l-0.2,0.07l-0.12,0.11h-0.14l-0.23-0.21l0.34-0.06l0.38-0.25l0.33-0.37l0.17-0.44l-0.34,0.34l-0.31,0.05h-0.33
		l-0.37,0.09h0.18l0.13,0.06l0.09,0.13v0.21H47l-0.25-0.06l-0.24-0.17v0.78l-0.3,0.17l-0.73-0.26h-0.37l-1.14,0.4h-0.42h-0.33
		l-0.29-0.15l-0.29-0.28v-0.13l-0.33-0.63h-0.09l-0.09-0.17l-0.21-0.1h-0.25h-0.06v-0.05v-0.16l-0.37-0.14l0.36-0.27h0.6l0.32,0.66
		h0.16l0.12-0.18l0.03-0.09l0.16,0.05l0.19,0.2v-0.21l0.12-0.48l0.35,0.41l0.55,0.18l0.59-0.06l0.47-0.31l-0.16-0.22l0.86-1.2
		l0.09-0.6l-0.49-0.65v0.2l0.21,0.22v0.21l-0.13,0.16l-0.27,0.08l0.31,0.22l-0.09,0.16l-0.1,0.07h-0.26l-0.11-0.19l-1.1-0.7
		l0.46,0.06l0.44,0.16l-0.26-0.38l-0.26-0.17l-0.68-0.12l0.3,0.2l-0.45,0.22l-1.13,0.12l-0.23,0.23l-0.19,0.39l-0.43,0.2l-0.73,0.18
		v-0.2h0.15v-0.25l-0.28,0.05l-0.07,0.06l-0.09,0.14h-0.15l-0.09-0.4V117l0.07-0.25l0.19-0.16h-0.26l-0.23-0.17l-0.15-0.3
		l-0.05-0.41h-0.17v0.26l0.11,0.41v0.22v0.78l0.08,0.33l0.19,0.36l0.25,0.33l0.23,0.23l-0.06,0.22v0.1l-0.06,0.12l-0.07-0.11
		l-0.22-0.33L40,118.75l-0.2-0.2l-0.24-0.34l-0.29-0.27l0.13,0.43l-0.12,0.21l-0.2-0.09l-0.11-0.43l-0.08-0.5h-0.14l-0.08,0.36
		l0.14,0.43h-0.32h-0.13l-0.14-0.16l-0.69,0.38h-0.35l-0.31-0.19l0.15-0.09l0.14-0.13l-0.21-0.2l-0.26-0.16h-0.24l-0.19,0.34h0.1
		l0.09,0.11l0.11,0.06l-0.24,1.1l0.12,0.93l0.37,0.76l0.48,0.57h-0.26l-0.46-0.13l-0.14,0.14h-0.14l-0.26-0.94v-0.29v-0.36l0.2-0.55
		v-0.44v-0.76l-0.16-0.56l-0.24-0.43l-0.31-0.36l-0.21-0.13l-0.24-0.11l-0.21-0.13l-0.09-0.2V116l0.26-0.91l1.65-0.78l-0.08-0.17
		v-0.18v-0.23v-0.33l-0.1,0.07l-0.26,0.1l-0.1,0.07v-0.69v-0.22H36l-0.17,0.35l-0.24-0.06l-0.29-0.16l-0.35,0.07l0.31,0.12
		l0.21,0.24l0.14,0.35l0.09,0.45h-0.11l0,0l0,0v0.12l-0.26-0.19l-0.16,0.12L35,114.35l-0.31,0.09l0.09,0.1l0.22,0.34l-0.3,0.15
		l-0.11,0.31l-0.07,0.3l-0.2,0.13l-0.16-0.13l-0.67-0.76l-0.56-0.16l-1-0.26h-0.59l0.4-0.16h0.39l0.88,0.32v-0.2l-0.35-0.22
		l-0.4-0.13l-0.92-0.1v-0.24h0.2l0.09-0.07v-0.17v-0.3l0.07-0.13l0.38,0.06h0.13l0.28-0.73l0.2-0.39l0.29-0.22v-0.24l-0.48,0.56
		l-0.61,0.57l-0.66,0.4l-0.4,0.23l0.17,0.1l0.13,0.14l0.11,0.16v0.21l-1.8,0.45l-0.31-0.1l-0.1-0.17l-0.65-0.85l-0.31-0.67
		l-0.25-0.29l-0.09-0.14l-0.08-0.24l-0.24,0.2h-0.36l-0.78-0.19h-0.56h-0.19l-0.17-0.11l-0.25-0.28l-0.1-0.06h-0.83l-0.42-0.15
		l-0.19-0.45l-0.19-0.09l-1.14,0.65l-0.32-0.32h-0.46l-0.5,0.11h-0.4v-0.11l-0.42-0.79l-0.16-0.17l-0.16-0.13l-0.07-0.19l0.09-0.38
		h-0.19l-0.14-0.06l-0.27-0.18l-0.07-0.35l-0.41-0.48l-0.59-0.39l-0.58-0.12l0.2,0.67l-0.16,0.49l-0.49,0.55l-0.45-0.12h0.22h0.18
		l0.13-0.15l0.07-0.29l-0.26,0.1h-0.29l-0.17,0.07l-0.11,0.29l-0.62-0.52l-0.29-0.12h-0.36l-0.26-0.16l-0.28-0.38l-0.22-0.52
		l-0.06-0.53l-0.23,0.39l0.13,0.5l0.29,0.44l0.27,0.26v0.2h-0.28l-0.21,0.08l-0.2,0.15l-0.22,0.22l-0.42-0.72l-0.3,0.08l-0.07,0.41
		l0.32,0.23l-0.06,0.12l-0.07,0.1v0.21h0.6v0.24l-0.72,0.69l-0.33,0.21l-0.54,0.15l-3.22-0.15v-0.25l-0.05-0.46v-0.19l0.14-0.08H9.4
		h0.18l0.09-0.22l-0.08-0.58l-0.33-0.84l-0.21-0.9l-0.33-0.59l-1-1.37l-1-0.81h264.77L271.49,104.67L271.49,104.67z"/>
	<path class="st8" d="M-6.76,89.79h0.08l-0.13-0.33l-0.21-0.07l-0.56,0.17V89.3l0.9-0.52l0.5-0.14l0.41,0.2l0.05,0.08v0.09
		l0.07,0.06h0.14v0.23l-1.13,0.59l-0.38,0.09v-0.23h0.07L-6.76,89.79z M280.24,71.49H70.83l-0.18,1.43l0.09,0.19L71,73.18l0.11,0.19
		v0.3l-0.12,0.38l-0.19-0.29l-0.14,0.34l-0.18,1.6l-0.15,0.4l-0.23,0.3l-0.3,0.14v0.25l0.52,0.13l0.27,0.53l0.09,0.79v0.92
		l0.18,0.79l0.81,0.73l0.19,0.79l0.11,0.2l0.28,0.18L73,82.07l0.12,0.14l0.07,0.18v0.21l0.06,0.16h0.12l0.1-0.13v-0.08l0.85,0.08
		l0.48,0.25l0.35,0.58l-0.8-0.31l-2.36,0.54l-1.73-0.23l-0.36,0.08l-1,0.58l-1.73,0.27h-1.6l-0.93-0.26l-0.5-0.57v-0.78l0.55-0.89
		l-0.16-0.24l-0.07-0.17V81.3l0.07-0.14l-2.23,0.45l0.13,0.25h-0.82l-0.2,0.1v0.24v0.23l-0.08,0.11L61,82.64l-0.25,0.24l-0.17,0.3
		l-0.07,0.27l0.21,0.41l0.41,1l0.2,0.19h0.26l0.22,0.08l0.2,0.2l0.16,0.39l-0.26-0.2l-0.1-0.1l-0.09-0.15h-0.15l0.09,0.53l0.32,0.59
		l-0.12,0.26l0.61,0.43l-0.68,0.45l-0.22,0.23l0.09-0.73l-0.13-0.45l-0.57-0.86l0.07-0.13l0.09-0.32l-0.27-0.1l-0.19-0.25
		l-0.11-0.33v-0.36l-0.46-0.86l-0.06-0.15l-1,0.11l-1,0.35l0.18,0.47l0.11,0.23l0.16,0.21l-0.28-0.3h-0.27l-0.26,0.2l-0.24,0.37
		l0.19,0.18h0.1v0.23l-0.33,0.19l-0.2-0.2l-0.12-0.41l-0.09-0.49v0.4l-0.08,0.35l-0.15,0.25l-0.24,0.13v-0.35l-0.08-0.37l-0.14-0.29
		l-0.25-0.12l-0.08-0.18l-0.11-0.78l-0.11-0.18l-0.5,0.25l-0.44,0.47l-0.41,0.28L54,83.9l0.61-0.68l0.11-0.18l0.08-0.19l0.1-0.18
		l0.16-0.13V82.3h-0.29l-0.22-0.1l-0.16-0.24l-0.08-0.39l-0.3,0.61l-0.57,0.56l-0.66,0.44l-0.58,0.23l-0.19-0.46l-0.48-0.07l-1,0.3
		l0.42,0.21h0.19v0.23l-0.31,0.34l-1.48,0.93l-0.39,0.13l-0.23,0.19l-0.17,0.2l-0.52,0.83l-0.42,0.46l-0.36,0.16h-0.87l-0.09,0.25
		v0.48l-0.06,0.31l-0.3-0.25l-0.19-0.25l-0.18-0.2l-0.21-0.12H45.1l0.17-0.16l0.12-0.19l0.09-0.24l0.07-0.3l-1.25-0.61l-0.53-0.4
		l-0.28-0.14l-0.11-0.1l-0.08-0.21v-0.17l0.06-0.15v-0.18l-0.09-0.26l-0.22-1l-1.43-1.24l-0.14-0.33l-0.34-0.39l-0.39-0.35
		l-0.33-0.21v-0.21h0.09l0.22-0.18v-0.23v-0.2v-0.28l-0.44-0.16h-1.11l-0.56-0.22v-0.25h-0.29v-0.21l0.37-0.29l0.17-0.1l0.21-0.06
		V77.9l0,0l0,0H39l0.16-0.23l-0.33-0.37l-0.23-0.07l-0.23,0.07l-0.22,0.18l-0.36-0.08l-0.43,0.63l-0.72,1.5h-0.21V79.3l0.47-0.62
		l0.14-0.27l0.28-0.87l0.17-0.27l-0.3-0.25v-0.2l0.15-0.33v-0.35l-0.16-0.3l-0.27-0.18l-0.27,0.08l-0.41,0.5L36,76.13l-0.19,0.25
		l-0.54,0.47l-0.66,0.82l-0.18,0.32l-0.07,0.42l-0.12-0.21v-0.09v-0.15l0.28-0.34l0.16-0.6v-0.65l-0.15-0.49l-0.35-0.08l-0.65,0.82
		l-0.21-0.05h-0.19l-0.25,0.19l-1.85,0.71l-0.15,0.1l-0.22,0.27l-0.2,0.13h-0.27h-0.51l0.07-0.16V77.7l0.06-0.09l0.13-0.1h-0.31
		l-0.75-0.46h-0.7l-0.2-0.16h-0.14l-0.12,0.27l-0.48,0.87l-0.63,0.29l-0.22,0.28l0.09,0.54l0.76,1l0.32,0.2l-1.15,0.21l-0.09,0.23
		l0.09,0.51l0.22,0.77l-0.31,0.17h-0.64l-0.54-0.18v-0.56l-0.78,0.22h-0.23l-0.25-0.13l-0.51-0.45l-0.24-0.1h-1l-0.41-0.13
		l-0.28-0.4v0.39v0.16l-0.09,0.16L21.08,81l-0.25,0.3l-0.07,0.64l0.06,0.58l-0.18-0.18l-0.06-0.1l-0.08-0.2h-0.13l0.12,0.68
		L20.57,83l0.1,0.2l-0.17,0.23l0.17,0.23l-0.17,0.22l-0.28-0.38l-0.65-0.41l-0.26-0.36v-0.21h0.1l0.21-0.2l-0.43-0.1l-0.36,0.08
		l-0.62,0.61l0.11-0.39v-0.33l-0.15-0.25l-0.22-0.14v-0.25h0.15v-0.21l-0.27-0.04v-0.17l0.08-0.25v-0.31l-0.13-0.11L17,80.69
		l-0.46,0.29l-0.27,0.11l-0.3,0.06l0.08,0.3v0.25l-0.09,0.2l-0.15,0.15h-0.13l-0.09-0.24l-0.11-0.16h-0.12l-0.13,0.2l-0.4-0.24h-0.5
		l-0.51,0.1l-0.42,0.17l-0.36,0.26l-0.38,0.39l-0.11,0.34l0.42,0.12v0.25h-0.3l-0.49-0.2l-0.27-0.06l-0.23,0.07l-0.67,0.41
		l-0.51,0.06l0.16-0.74l-0.4-0.48H9.69L9.1,82.53l-0.61,0.36L7.86,83v0.25H8l0.3,0.19H7.79l-0.72,0.34l-0.5,0.09H4.9v0.21l0.19,0.13
		v0.1v0.11l-0.07,0.14l0.6,0.24H5.21l-1-0.26l-0.29,0.2l0.16,0.45l0.51,0.71l-0.28,0.08l-0.72-0.42l-0.43-0.12l-0.68,0.08
		l-0.41,0.13L1.72,85.9l0.16,0.24l-0.24-0.09L1.42,85.9l-0.4,0.58l-0.54,1l-0.22,1l0.56,0.41v0.21l-0.41,0.13l-0.26,0.46l-0.11,0.62
		v0.62l0.37,0.89v0.43H0l0.14,0.69l0.19,0.33l0.29,0.12h1.21l0.19-0.11v-0.24V92.8l0.07-0.11l0.43,0.07l0.76,0.31l0.39,0.09h0.42
		l0.66-0.34l1.07-0.27l1.38-0.87l0.68-0.3l1.49-0.24l0.43-0.17l0.69-0.39l0.39-0.12l-2.05,1.23l-0.24,0.2l-1.25,1.53v0.2h0.3
		l0.29-0.08l0.26-0.13l0.18-0.19l0.16,0.23l-0.08,0.07l0,0l-0.06,0.12l0.49-0.09l0.69-0.48l0.33,0.14l0.08-0.14l0.14-0.17l0.07-0.16
		h0.16v0.25h-0.16v0.22l0.34-0.1l0.5-0.37h0.37l-0.43,0.47l-0.21,0.16l-0.1,0.14v0.13l-0.19,0.08l-0.09,0.08l-0.18,0.3l0.93-0.07
		h0.14l0.12,0.34l0.27,0.11l0.31-0.09l0.2-0.25l0.09,0.39l0.26,0.12h0.68v0.24l-1.79,0.39l-0.45-0.18h0.32l0.14-0.06l0.14-0.14
		L10.09,95l-1,0.31H8.83H8.54l-0.17-0.12l-0.14-0.14L8,94.93l-1.95,0.14l-0.6-0.29l0.28-1.22l-0.36-0.17l-0.28,0.26l-0.39,1v0.12V95
		v0.22l-0.27,0.1H4.19L4,95.25H3.82l-0.24,0.13l0.06,0.33l-0.06,0.35l1.32,0.05l0.27,0.07l0.15,0.34l-0.08,0.13L5.07,96.8
		l-0.11,0.39l0.05,0.24l0.14,0.28l0.25,0.38l-0.12,0.22l-0.19,0.7l0.57-0.2l0.39-0.62l0.3-0.75l0.32-0.59l0.61-0.21l1.17,0.75
		L9,97.19v0.21l0.1,0.2l0.14,0.16l0.17,0.1l0.93,0.21l0.3,0.31l0.11,0.73l0.06,0.23l0.31,0.4l0.1,0.38l-0.21,0.92l-0.1,0.24
		l-0.33,0.14l-1.25-0.39l-7.06,1.6H2.15l-0.17-0.2H1.9l-0.07-0.13v0.12v0.12l-0.13,0.24l-0.09,0.21l-0.11,0.2l-0.15,0.12L3,103.78
		l0.74-0.05l0.38,0.07l0.65,0.65l0.29-0.16l0.27-0.33l0.29-0.18l0.22,0.11l0.93,0.74h265.21v-0.08l-0.94-1.68l-0.07-1.36l0.14-0.64
		l0.14-0.51l0.16-0.29l0.15-0.2l0.11-0.26v-0.47l0.15-0.41l1.39-2l0.23-0.48l0.14-0.56v-0.67l0.15-0.69l0.36-0.3l0.4-0.22l0.3-0.48
		v-0.46l-0.11-0.45L274.53,92l-0.07-0.4v-0.43l0.16-0.88l0.11-0.37l0.15-0.32l0.15-0.21l0.11-0.32v-0.64l0.12-0.3l0.26-0.27
		l0.55-0.43V87.3l-0.26-0.71v-1.15l0.19-1.09l0.92-1.45l0.26-0.18l0.36-0.12l0.33-0.3l0.61-0.72l0.26-0.17l0.29-0.28l0.23-0.32
		l0.1-0.26v-0.64l0.11-0.3l0.25-0.08h0.62l0.17-0.06l0.32-0.17l0.05-0.18V78.8l0.11-0.17l0.1-0.1l0.05-0.08h0.19l0.8-0.44l0.14-0.11
		l0.27-0.46l1-2.76l0.69-1.3l0.46-0.53l-0.26-0.24l-2.15-0.45l-1.3-0.7h-0.75L280.24,71.49z"/>
	<path class="st9" d="M195.67,38l-0.09-0.37h11.64L207.03,38l-0.24,0.16l-0.91,0.15l-3.05,1.52l-0.65,0.12l-3.45-1l-1.68,0.25
		l-0.29-0.09l-1.23-0.66h0.17L195.67,38z M194.67,37.63h-62.3l-0.65,0.73l-0.53,0.18l-0.53,0.43l-9,2.94h-1.89l-1.71,0.63l-0.86,0.6
		l-0.76,0.23l-2.74,1.66l-0.22,0.32l-2.87,1.33l-0.22,0.22h-0.24l-1.09,0.89l-0.33,0.4l-0.88,3l-1.13,2.08l-0.06,0.24v0.37
		l0.07,0.29l0.31,0.21l0.07,0.2l0.19,0.33l0.44,0.27l0.5,0.16h0.38h0.45l1.57,0.54l1.81,0.25l1.81-0.26l1.56-1l-0.36,0.51
		l-0.42,0.38l-1,0.52l-5.46,1.24l-1.46,1.07l-0.52,0.82l-0.2,0.16l-0.5,0.14l-0.6,0.53l-1,0.49l-3.51,0.84l-0.56,0.51l-2.06-1.25
		l-1.1-0.26l-0.66-0.44l-0.39-0.16h-1.49l-1-0.42L93,59.42l-0.8,0.44h-0.54l-0.94-0.28l-3.8-0.28l-2.59-1l-2.89-0.16l-0.38,0.18
		l-0.37,0.41l-0.16,0.46l0.23,0.34v0.23l-0.43,0.12l-0.23-0.14l-0.17-0.24l-0.23-0.2h-0.25l-0.24,0.15h-0.17l-0.08-0.35l0.05-0.1
		l0.1-0.18l0.1-0.26v-0.37l-0.07-0.74l-0.22-0.51l-1.67-2.12l-0.32-0.94l-0.38-0.6l-0.28-0.66l0.11-0.81l0.14-0.17l0.19-0.07h0.49
		l0.08-0.14l0.06-0.32l0.09-0.32l0.56-0.4l-0.1-0.59l-0.48-1l-0.1-0.57l-0.09-0.24l-0.18-0.1l-2.63-0.48h-0.4l-1,0.31l-0.32,0.25
		l-0.57,0.77l-0.34,0.33l-0.37,0.17h-0.26l-0.46-0.17h-0.25l-0.24,0.08l-0.3,0.33l-0.2,0.08l-0.16-0.08l-0.06-0.16v-0.17v-0.08
		h-0.34L67.5,48.5l-1.44-0.2l-0.48-0.16h-0.11h-0.24h-0.11l-0.09-0.17l-0.08-0.41l-0.11-0.14l-0.22-0.09l-0.61,0.09l-0.26-0.08
		l-0.43-0.32l-0.21-0.07l-0.59,0.08l-0.09,0.26v0.51l-0.17,0.8l1,0.41l0.7,0.14l0.2,0.24l0.12,0.33l0.18,0.37l0.16,0.49v0.56
		l-0.1,1.06l-0.14,0.34l-0.62,0.58l-0.14,0.47l0.11,0.2l0.57,0.7l0.22,0.36l0.07,0.26v0.18v0.16l0.32,0.59L65,56.26l0.06,0.23v0.48
		l-0.08,1.16l0.06,0.44l0.22,0.23h0.25l0.29-0.13l0.31-0.07l-0.07,0.12v0.1l-0.06,0.24l0.44,0.26l0.49,0.54l0.4,0.26l0.18-0.58h0.17
		l0.28,0.69v0.21h-0.45l0.17,0.53l0.27,0.37l0.63,0.5h-0.1H68.4l-0.14,0.15l0.32,0.4l0.36,1.24l0.35,0.41l0.17-0.64h0.47l0.57,0.27
		l0.46,0.14v0.21l-0.79-0.23h-0.4l-0.17,0.33v0.61l0.09,0.65l0.15,0.64l0.19,0.53l0.11-0.17h0.05l0.27,0.21l-0.43,0.3l-0.15,0.21
		l-0.15,0.43l-0.11,0.43v0.38l0.12,0.25l0.31,0.06l-0.1,0.34l-0.05,0.36v0.8l0.07,0.28l0.16,0.34l0.15,0.19l0.07-0.13l0.17-0.52
		l0.42-0.24h0.49l0.42,0.21v0.2l-0.54-0.25l-0.29,0.16l-0.14,0.5l-0.06,0.51h210.19l-2.18-1.1h-0.39l-1.25,0.13l-1.83-0.54
		l-0.24,0.07l-0.51,0.28l-0.27,0.07h-0.21l-0.47-0.17h-0.24l-0.27,0.06l-0.26,0.11l-0.26,0.07l-0.31-0.07l-0.2-0.17l-0.21-0.44
		l-0.16-0.2l-0.49-0.25l-1-0.17l-0.48-0.31l-0.25-0.47l-0.49-0.82l-0.31-0.32v-0.11l0.05-0.08l0.17-0.1l-0.12-0.47l-0.4-0.14
		l-0.94-0.07l-0.1-0.37h-0.42l-0.52,0.16l-0.36,0.2l-0.11,0.17l-0.15,0.49l-0.11,0.19l-0.17,0.07l-0.45,0.06l-0.19,0.07l-0.14,0.17
		l-0.23,0.47L264.41,68h-0.14l-0.59-0.27h-1.89l-0.34-0.12l-0.35-0.18l-0.84-0.61h-0.12l-0.2,0.2v0.19l0.07,0.17v0.17l-0.67,0.43
		l-0.51-0.48l-0.25-0.93v-1.18h-0.47l-1.37-0.78h-0.24l-0.64,0.06l-0.92-0.21l-0.22,0.05l-0.13,0.47l0.17,0.55l0.08,0.55l-0.37,0.51
		l-0.28,0.06l-0.86-0.31h-1l-0.26-0.11l-0.28-0.48l0.06-0.41l0.11-0.42l-0.14-0.54h0.01l-0.29,0.2h-0.1l-0.06-0.12V64.2v-0.08
		l-0.07-0.14l-0.28-0.68l-0.09-0.09l-0.31-0.11l-0.11-0.09v-0.14v-0.34v-0.14l-1.45-1.42l-0.37-0.45l-0.14-0.39l0.12-0.31h0.39
		l0.09-0.27l-0.07-0.2l-1.07-1.14l-0.15-0.22h0.05V57.8l-0.06-0.28l-0.13-0.28l-0.38-0.36l-2-1h-0.24l-0.18,0.07l-0.42,0.29h-0.23
		h-0.19h-0.44l-0.58-0.32l-1.08-0.82l-0.6-0.24l-0.63-0.06l-1.26,0.14l0.15,0.31l-0.62,0.05l-0.16,0.07l-0.12,0.2v0.22l-0.05,0.18
		l-0.27,0.1l-0.21,0.33l-0.32,0.12l-1.87,0.11l-0.38,0.13l-0.3-1l-0.42-0.42l-1.39-0.33l-0.55-0.26l-0.38-0.36l-0.69-0.92
		l-0.29-0.17l-0.48-0.29h-0.23l-0.24,0.13l-0.28,0.37l-0.27,0.12l-0.48-0.08l-0.47-0.23l-0.49-0.12l-0.55,0.28l-0.26,0.36
		l-0.05,0.24l-0.07,0.14h-0.32h-0.19l-0.69-0.32l-0.41,0.19l-0.55,0.43l-0.57,0.34l-0.47-0.13l-0.14-0.3v-0.3l0.07-0.32v-0.35
		l-0.09-0.31l-1.06-1.93l-0.41-0.36l-0.68-0.26L222,50.45h-0.13l-0.08,0.09l-0.1,0.19l-0.11,0.17h-0.16l-0.36-0.07l-0.11-0.14v-0.31
		l0.07-0.48l0.17-0.11l0.1-0.13l-0.15-0.51l-0.42-0.52l-0.46-0.45h-0.47l-1,0.27l-0.51-0.14l-0.4-0.3l-0.33-0.32l-0.94-1.39
		l-0.26-0.25l-0.78-0.23l-0.44-0.25l-0.81-0.81l-0.4-0.22h-0.46l-0.95,0.34l-0.49,0.08l-0.58-0.09l-0.19-0.25v-1.24l-0.05-0.2
		l-0.22-0.36v-0.17v-0.21l0.19-0.23l0.07-0.18l0.12-0.41l0.11-0.29l0.06-0.29v-0.45l-0.34-0.63l-1-0.43l-0.29-0.47l0.09-0.55
		l0.35-0.88h-3L207.15,38l-0.24,0.16L206,38.31l-3.17,1.52l-0.65,0.12l-3.45-1l-1.68,0.25l-0.29-0.09l-1.23-0.66h0.17v-0.5
		l-0.09-0.37h-0.86L194.67,37.63z"/>
	<path class="st10" d="M207.88,37.63h-0.66l0,0l0.15-0.54l0.17-1.09v-0.24l-0.08-0.17l-0.05-0.21l0.05-0.33l0.13-0.27l2.34-2.38
		l0.59-0.28l0.1,0.51l0.25,0.11l0.68-0.15l0.21,0.27v0.6l-0.12,0.71v0.6l-0.24-0.26h-0.13l-0.41,0.91v0.31v0.28v0.37l-0.5,1.23
		h-2.38L207.88,37.63z M159.63,3.06h-11.8l-0.34,0.2l-0.39-0.08l-4.27,1.85l-0.67,0.64l-0.64,0.89l-0.36,0.38l-0.42,0.16h-0.46
		l-0.18,0.08l-0.54,0.43v0.17l0.05,0.49l0.35,1.28l0.14,0.8l-0.12,0.66l-0.25,0.51l-0.46,1.38l-0.11,0.61v0.79l0.23,1.48l0.09,1.63
		l0.12,0.48l0.6,0.92l-0.69,0.52l-0.11,1.41v1.62l-0.39,1.17v0.23l1.21,1v0.21l-0.85-0.17l-0.45,0.92L138.83,27v1.11l0.22,0.28
		l0.93,0.46l0.22,0.44l0.14,0.39l0.34,0.27l0.44,0.15h0.42v0.26h-0.45l0.13,0.26l0.11,0.15l0.15,0.05h0.23v0.23l-0.19,0.19h-0.21
		l-2.17-1.06l-0.76,0.1l-0.74,1l-0.5,1.81l-0.18,0.3l-0.26,0.21l-1.16,1.44l-2.86,2.32l-0.22,0.25h63.21v-0.15h-0.11l0.09-0.4
		l0.11-0.26l0.16-0.19l0.4-0.38l0.51-0.36l0.53-0.27v-0.22l-0.15-0.28l-0.13-0.32l-0.49-1.48l-0.22-0.11h-0.23l-0.44,0.2l-0.31-0.16
		l0.05-0.62l0.42-1.38l0.12-0.62l0.1-0.28l0.23-0.34l0.52-0.4l0.22-0.25v-0.36l-0.14-0.23l-0.27-0.24l-0.29-0.18l-0.2-0.07
		l-0.27,0.11v0.22v0.24l-0.16,0.16l-0.4-0.19l-0.6-1.3l-0.46-0.4l-0.46-0.27l-0.73-0.82l-0.43-0.2h-0.46l-1.39,0.59h-0.5l-0.39-0.18
		l-0.38-0.27l-0.45-0.23l-0.91-0.11l-1,0.07l-0.3,0.11l-0.17,0.2l-0.4,0.68l-0.09,0.28l-0.06,0.11l-0.1,0.07l0,0l0,0l-0.08,0.23
		l-0.77-0.73l-0.2-1.41v-1.57l-0.16-1.35l-0.35-0.65l-0.44-0.42l-0.48-0.24l-0.49-0.11h-1.42l-0.27-0.2l0.21-0.38v-0.28l-0.15-0.18
		l-0.31-0.1h-0.31l-0.23,0.14l-0.22,0.22l-0.29,0.23l-1,0.36l-0.54,0.06l-0.38-0.11l-1-0.5l-0.29-0.23l-0.34-0.44l-0.11-0.4v-1.1
		l-0.58-2l-0.17-1l0.3-0.58l-0.25-0.83l-0.09-0.26l-0.3-0.1h-0.3l-0.18-0.21l-0.27-0.66l-0.67-1.2l-0.37-0.36l-0.57-0.17l-2.89,0.91
		l-0.5,0.32l-0.4,0.43l-0.66,1.15l-0.29,0.23l-0.34-0.08l-1.86-0.85l-0.4-0.35l-0.12-0.21l-0.29-0.7l-0.13-0.23l-0.81-0.79
		l-0.15-0.26l-0.07-0.23l-0.11-0.2l-0.29-0.16h-0.2l-0.41,0.06h-0.22l-0.32-0.07l-0.16-0.07l-0.12-0.2l-0.19-0.44l-0.1-0.11
		l-0.26-0.14l-0.07-0.12V8.33l0.17-0.38V7.72l-0.44-1.53l0.13-0.32l0.5-0.51l0.13-0.21l-0.07-0.69l-0.2-0.56l-0.75-0.84h-1.4H159.63
		z"/>
	<path class="st10" d="M161,3.02L161,3.02h-13.17l0.41-0.24l3.52-0.45l3.76-1.24l0.23-0.12h0.18l1.31,0.16l1.79-0.47l0.9-0.42
		L160.25,0l0.33,0.79l0.22,1.55L161,3.02z"/>
</g>
<g id="traits">
	<path id="paralleles" class="st11" d="M0,200.54h314.57 M0,291.5h314.57 M0,261.68h314.57 M0,231.36h314.57 M0,169.16h314.57
		 M0,137.22h314.57 M0,104.67h314.57 M0,71.49h314.57 M0,37.63h314.57 M0,3.06h314.57"/>
	<path id="milieu" class="st12" d="M314.57,153.19H0"/>
</g>
</svg>
