<?xml version="1.0" encoding="UTF-8"?>
<svg width="83px" height="696px" viewBox="0 0 83 696" version="1.1" xmlns="http://www.w3.org/2000/svg" xmlns:xlink="http://www.w3.org/1999/xlink">
    <title>Artboard</title>
    <defs>
        <rect id="path-1" x="0" y="0" width="83" height="696"></rect>
    </defs>
    <g id="Artboard" stroke="none" stroke-width="1" fill="none" fill-rule="evenodd">
        <g id="votes">
            <mask id="mask-2" fill="white">
                <use xlink:href="#path-1"></use>
            </mask>
            <g id="Rectangle"></g>
            <g id="jauge-votes" mask="url(#mask-2)">
                <path d="M20.5,7.4 L20.5,6.8 C20.5,3.1 22.7,0.8 25.8,0.8 C28.9,0.8 31.1,2.9 31.1,6.7 L31.1,7.2 C31.1,10.9 29.1,13.3 25.8,13.3 C22.5,13.4 20.5,11.1 20.5,7.4 Z M28.3,7.4 L28.3,6.8 C28.3,4.4 27.4,3 25.8,3 C24.1,3 23.2,4.3 23.2,6.8 L23.2,7.4 C23.2,9.9 24.1,11.2 25.8,11.2 C27.5,11.2 28.3,9.9 28.3,7.4 Z M35.6,3.9 C35.6,2.2 37,0.9 38.7,0.9 C40.4,0.9 41.8,2.1 41.8,3.8 C41.8,5.5 40.5,6.8 38.7,6.8 C36.8,6.9 35.6,5.6 35.6,3.9 Z M45.3,1 L46.8,1 L38.7,13.2 L37.2,13.2 L45.3,1 Z M39.8,3.9 C39.8,3 39.4,2.4 38.6,2.4 C37.8,2.4 37.4,2.9 37.4,3.9 C37.4,4.9 37.9,5.4 38.6,5.4 C39.3,5.4 39.8,4.8 39.8,3.9 Z M42.3,10.4 C42.3,8.7 43.7,7.4 45.4,7.4 C47.1,7.4 48.5,8.6 48.5,10.3 C48.5,12 47.2,13.3 45.4,13.3 C43.6,13.4 42.3,12.1 42.3,10.4 Z M46.5,10.3 C46.5,9.4 46.1,8.9 45.3,8.9 C44.6,8.9 44.1,9.4 44.1,10.4 C44.1,11.4 44.6,11.9 45.3,11.9 C46.1,11.8 46.5,11.3 46.5,10.3 Z M12.6,76.2 L12.6,74.2 L14.8,74.2 L14.8,66.7 L12.4,68.3 L12.4,66 L15.1,64.1 L17.5,64.1 L17.5,74.3 L19.5,74.3 L19.5,76.3 L12.6,76.3 L12.6,76.2 Z M20.5,70.5 L20.5,69.9 C20.5,66.2 22.7,63.9 25.8,63.9 C28.9,63.9 31.1,66 31.1,69.8 L31.1,70.3 C31.1,74 29.1,76.4 25.8,76.4 C22.5,76.4 20.5,74.2 20.5,70.5 Z M28.3,70.4 L28.3,69.8 C28.3,67.4 27.4,66 25.8,66 C24.1,66 23.2,67.3 23.2,69.8 L23.2,70.4 C23.2,72.9 24.1,74.2 25.8,74.2 C27.5,74.3 28.3,73 28.3,70.4 Z M35.6,67 C35.6,65.3 37,64 38.7,64 C40.4,64 41.8,65.2 41.8,66.9 C41.8,68.6 40.5,69.9 38.7,69.9 C36.8,69.9 35.6,68.7 35.6,67 Z M45.3,64.1 L46.8,64.1 L38.7,76.3 L37.2,76.3 L45.3,64.1 Z M39.8,66.9 C39.8,66 39.4,65.4 38.6,65.4 C37.8,65.4 37.4,65.9 37.4,66.9 C37.4,67.9 37.9,68.4 38.6,68.4 C39.3,68.4 39.8,67.9 39.8,66.9 Z M42.3,73.4 C42.3,71.7 43.7,70.4 45.4,70.4 C47.1,70.4 48.5,71.6 48.5,73.3 C48.5,75 47.2,76.3 45.4,76.3 C43.5,76.4 42.3,75.1 42.3,73.4 Z M46.5,73.4 C46.5,72.5 46.1,72 45.3,72 C44.6,72 44.1,72.5 44.1,73.5 C44.1,74.5 44.6,75 45.3,75 C46.1,74.9 46.5,74.3 46.5,73.4 Z M17.1,142.4 L19.2,142.4 L19.2,145.9 L10,145.9 L10,144.4 L14.3,140.4 C15.7,139.1 16.2,138.3 16.2,137.3 C16.2,136.3 15.6,135.7 14.6,135.7 C13.5,135.7 12.9,136.3 12.7,137.9 L10.2,137.9 C10.4,135.1 12,133.6 14.7,133.6 C17.4,133.6 18.9,135 18.9,137.1 C18.9,138.7 17.9,140 16.4,141.3 L13.5,143.9 L17,143.9 L17,142.4 L17.1,142.4 Z M20.5,140.1 L20.5,139.5 C20.5,135.8 22.7,133.5 25.8,133.5 C28.9,133.5 31.1,135.6 31.1,139.4 L31.1,139.9 C31.1,143.6 29.1,146 25.8,146 C22.5,146.1 20.5,143.8 20.5,140.1 Z M28.3,140 L28.3,139.4 C28.3,137 27.4,135.6 25.8,135.6 C24.1,135.6 23.2,136.9 23.2,139.4 L23.2,140 C23.2,142.5 24.1,143.8 25.8,143.8 C27.5,143.9 28.3,142.6 28.3,140 Z M35.6,136.6 C35.6,134.9 37,133.6 38.7,133.6 C40.4,133.6 41.8,134.8 41.8,136.5 C41.8,138.2 40.5,139.5 38.7,139.5 C36.8,139.6 35.6,138.3 35.6,136.6 Z M45.3,133.7 L46.8,133.7 L38.7,145.9 L37.2,145.9 L45.3,133.7 Z M39.8,136.6 C39.8,135.7 39.4,135.1 38.6,135.1 C37.8,135.1 37.4,135.6 37.4,136.6 C37.4,137.6 37.9,138.1 38.6,138.1 C39.3,138.1 39.8,137.5 39.8,136.6 Z M42.3,143.1 C42.3,141.4 43.7,140.1 45.4,140.1 C47.1,140.1 48.5,141.3 48.5,143 C48.5,144.7 47.2,146 45.4,146 C43.6,146.1 42.3,144.8 42.3,143.1 Z M46.5,143 C46.5,142.1 46.1,141.6 45.3,141.6 C44.6,141.6 44.1,142.1 44.1,143.1 C44.1,144.1 44.6,144.6 45.3,144.6 C46.1,144.5 46.5,144 46.5,143 Z M9.7,211.7 L12.2,211.7 C12.3,212.9 12.9,213.7 14.4,213.7 C15.8,213.7 16.4,213.1 16.4,212 C16.4,210.8 15.8,210.2 14.4,210.2 L13.4,210.2 L13.4,208.4 L14.3,208.4 C15.6,208.4 16.2,207.8 16.2,206.8 C16.2,205.9 15.6,205.3 14.5,205.3 C13.3,205.3 12.6,206 12.5,207.1 L10.1,207.1 C10.2,204.9 11.8,203.2 14.6,203.2 C17.3,203.2 18.8,204.6 18.8,206.5 C18.8,207.9 18,208.7 16.8,209.1 C18.2,209.4 19.2,210.4 19.2,212 C19.2,214.3 17.4,215.7 14.5,215.7 C11.3,215.7 9.8,214.1 9.7,211.7 Z M20.5,209.7 L20.5,209.1 C20.5,205.4 22.7,203.1 25.8,203.1 C28.9,203.1 31.1,205.2 31.1,209 L31.1,209.5 C31.1,213.2 29.1,215.6 25.8,215.6 C22.5,215.7 20.5,213.5 20.5,209.7 Z M28.3,209.7 L28.3,209.1 C28.3,206.7 27.4,205.3 25.8,205.3 C24.1,205.3 23.2,206.6 23.2,209.1 L23.2,209.7 C23.2,212.2 24.1,213.5 25.8,213.5 C27.5,213.5 28.3,212.2 28.3,209.7 Z M35.6,206.2 C35.6,204.5 37,203.2 38.7,203.2 C40.4,203.2 41.8,204.4 41.8,206.1 C41.8,207.8 40.5,209.1 38.7,209.1 C36.8,209.2 35.6,207.9 35.6,206.2 Z M45.3,203.4 L46.8,203.4 L38.7,215.6 L37.2,215.6 L45.3,203.4 Z M39.8,206.2 C39.8,205.3 39.4,204.7 38.6,204.7 C37.8,204.7 37.4,205.2 37.4,206.2 C37.4,207.2 37.9,207.7 38.6,207.7 C39.3,207.7 39.8,207.1 39.8,206.2 Z M42.3,212.7 C42.3,211 43.7,209.7 45.4,209.7 C47.1,209.7 48.5,210.9 48.5,212.6 C48.5,214.3 47.2,215.6 45.4,215.6 C43.6,215.7 42.3,214.4 42.3,212.7 Z M46.5,212.7 C46.5,211.8 46.1,211.3 45.3,211.3 C44.6,211.3 44.1,211.8 44.1,212.8 C44.1,213.8 44.6,214.3 45.3,214.3 C46.1,214.2 46.5,213.6 46.5,212.7 Z M13.7,285.1 L13.7,283.1 L15,283.1 L15,281.9 L9.3,281.9 L9.3,280.5 L14.3,272.9 L17.7,272.9 L17.7,280 L19.3,280 L19.3,281.9 L17.7,281.9 L17.7,283.1 L19,283.1 L19,285.1 L13.7,285.1 Z M15.1,280.1 L15.1,274.9 L11.7,280.1 L15.1,280.1 Z M20.5,279.4 L20.5,278.8 C20.5,275.1 22.7,272.8 25.8,272.8 C28.9,272.8 31.1,274.9 31.1,278.7 L31.1,279.2 C31.1,282.9 29.1,285.3 25.8,285.3 C22.5,285.3 20.5,283.1 20.5,279.4 Z M28.3,279.3 L28.3,278.7 C28.3,276.3 27.4,274.9 25.8,274.9 C24.1,274.9 23.2,276.2 23.2,278.7 L23.2,279.3 C23.2,281.8 24.1,283.1 25.8,283.1 C27.5,283.2 28.3,281.9 28.3,279.3 Z M35.6,275.8 C35.6,274.1 37,272.8 38.7,272.8 C40.4,272.8 41.8,274 41.8,275.7 C41.8,277.4 40.5,278.7 38.7,278.7 C36.8,278.8 35.6,277.6 35.6,275.8 Z M45.3,273 L46.8,273 L38.7,285.2 L37.2,285.2 L45.3,273 Z M39.8,275.8 C39.8,274.9 39.4,274.3 38.6,274.3 C37.9,274.3 37.4,274.8 37.4,275.8 C37.4,276.8 37.9,277.3 38.6,277.3 C39.4,277.3 39.8,276.8 39.8,275.8 Z M42.3,282.3 C42.3,280.6 43.7,279.3 45.4,279.3 C47.1,279.3 48.5,280.5 48.5,282.2 C48.5,283.9 47.2,285.2 45.4,285.2 C43.6,285.3 42.3,284 42.3,282.3 Z M46.5,282.3 C46.5,281.4 46.1,280.9 45.3,280.9 C44.6,280.9 44.1,281.4 44.1,282.4 C44.1,283.4 44.6,283.9 45.3,283.9 C46.1,283.8 46.5,283.2 46.5,282.3 Z M14.6,424.6 C10.9,424.6 9.6,422.1 9.6,418.8 L9.6,418.5 C9.6,414.4 11.8,412.1 14.8,412.1 C17.2,412.1 18.7,413.2 19,415.5 L16.4,415.5 C16.2,414.7 15.8,414.2 14.8,414.2 C13.3,414.2 12.4,415.5 12.3,418 C12.8,417.1 13.8,416.5 15.2,416.5 C17.5,416.5 19.2,418 19.2,420.4 C19.3,422.9 17.5,424.6 14.6,424.6 Z M16.6,420.4 C16.6,419.1 15.8,418.2 14.6,418.2 C13.4,418.2 12.5,419.1 12.5,420.3 C12.5,421.7 13.3,422.6 14.6,422.6 C15.8,422.6 16.6,421.7 16.6,420.4 Z M20.5,418.6 L20.5,418 C20.5,414.3 22.7,412 25.8,412 C28.9,412 31.1,414.1 31.1,417.9 L31.1,418.4 C31.1,422.1 29.1,424.5 25.8,424.5 C22.5,424.6 20.5,422.3 20.5,418.6 Z M28.3,418.6 L28.3,418 C28.3,415.6 27.4,414.2 25.8,414.2 C24.1,414.2 23.2,415.5 23.2,418 L23.2,418.6 C23.2,421.1 24.1,422.4 25.8,422.4 C27.5,422.4 28.3,421.1 28.3,418.6 Z M35.6,415.1 C35.6,413.4 37,412.1 38.7,412.1 C40.4,412.1 41.8,413.3 41.8,415 C41.8,416.7 40.5,418 38.7,418 C36.8,418.1 35.6,416.8 35.6,415.1 Z M45.3,412.2 L46.8,412.2 L38.7,424.4 L37.2,424.4 L45.3,412.2 Z M39.8,415.1 C39.8,414.2 39.4,413.6 38.6,413.6 C37.8,413.6 37.4,414.1 37.4,415.1 C37.4,416.1 37.9,416.6 38.6,416.6 C39.3,416.6 39.8,416 39.8,415.1 Z M42.3,421.6 C42.3,419.9 43.7,418.6 45.4,418.6 C47.1,418.6 48.5,419.8 48.5,421.5 C48.5,423.2 47.2,424.5 45.4,424.5 C43.6,424.6 42.3,423.3 42.3,421.6 Z M46.5,421.6 C46.5,420.7 46.1,420.2 45.3,420.2 C44.6,420.2 44.1,420.7 44.1,421.7 C44.1,422.7 44.6,423.2 45.3,423.2 C46.1,423 46.5,422.5 46.5,421.6 Z M13,485.6 L10.8,485.6 L10.8,481.9 L19.7,481.9 L19.7,483.3 L15.7,494.1 L12.9,494.1 L16.8,484 L13,484 L13,485.6 Z M20.5,488.3 L20.5,487.7 C20.5,484 22.7,481.7 25.8,481.7 C28.9,481.7 31.1,483.8 31.1,487.6 L31.1,488.1 C31.1,491.8 29.1,494.2 25.8,494.2 C22.5,494.2 20.5,492 20.5,488.3 Z M28.3,488.2 L28.3,487.6 C28.3,485.2 27.4,483.8 25.8,483.8 C24.1,483.8 23.2,485.1 23.2,487.6 L23.2,488.2 C23.2,490.7 24.1,492 25.8,492 C27.5,492.1 28.3,490.8 28.3,488.2 Z M35.6,484.7 C35.6,483 37,481.7 38.7,481.7 C40.4,481.7 41.8,482.9 41.8,484.6 C41.8,486.3 40.5,487.6 38.7,487.6 C36.8,487.7 35.6,486.4 35.6,484.7 Z M45.3,481.9 L46.8,481.9 L38.7,494 L37.2,494 L45.3,481.9 Z M39.8,484.7 C39.8,483.8 39.4,483.2 38.6,483.2 C37.8,483.2 37.4,483.7 37.4,484.7 C37.4,485.7 37.9,486.2 38.6,486.2 C39.3,486.2 39.8,485.7 39.8,484.7 Z M42.3,491.2 C42.3,489.5 43.7,488.2 45.4,488.2 C47.1,488.2 48.5,489.4 48.5,491.1 C48.5,492.8 47.2,494.1 45.4,494.1 C43.6,494.2 42.3,492.9 42.3,491.2 Z M46.5,491.2 C46.5,490.3 46.1,489.8 45.3,489.8 C44.6,489.8 44.1,490.3 44.1,491.3 C44.1,492.3 44.6,492.8 45.3,492.8 C46.1,492.7 46.5,492.1 46.5,491.2 Z M9.9,560.2 C9.9,558.7 10.7,557.7 12.1,557.2 C11,556.7 10.3,555.9 10.3,554.7 C10.3,552.6 12.3,551.4 14.6,551.4 C16.9,551.4 18.9,552.6 18.9,554.7 C18.9,555.9 18.2,556.8 17.1,557.2 C18.5,557.7 19.3,558.7 19.3,560.2 C19.3,562.6 17.3,563.9 14.6,563.9 C12,563.8 9.9,562.6 9.9,560.2 Z M16.7,560 C16.7,558.8 15.8,558.1 14.7,558.1 C13.6,558.1 12.7,558.8 12.7,560 C12.7,561.2 13.6,561.9 14.7,561.9 C15.8,561.8 16.7,561.2 16.7,560 Z M16.4,554.8 C16.4,553.8 15.6,553.2 14.7,553.2 C13.7,553.2 13,553.8 13,554.8 C13,555.8 13.8,556.4 14.7,556.4 C15.7,556.4 16.4,555.8 16.4,554.8 Z M20.5,557.9 L20.5,557.3 C20.5,553.6 22.7,551.3 25.8,551.3 C28.9,551.3 31.1,553.4 31.1,557.2 L31.1,557.7 C31.1,561.4 29.1,563.8 25.8,563.8 C22.5,563.8 20.5,561.6 20.5,557.9 Z M28.3,557.8 L28.3,557.2 C28.3,554.8 27.4,553.4 25.8,553.4 C24.1,553.4 23.2,554.7 23.2,557.2 L23.2,557.8 C23.2,560.3 24.1,561.6 25.8,561.6 C27.5,561.7 28.3,560.4 28.3,557.8 Z M35.6,554.4 C35.6,552.7 37,551.4 38.7,551.4 C40.4,551.4 41.8,552.6 41.8,554.3 C41.8,556 40.5,557.3 38.7,557.3 C36.8,557.4 35.6,556.1 35.6,554.4 Z M45.3,551.5 L46.8,551.5 L38.7,563.7 L37.2,563.7 L45.3,551.5 Z M39.8,554.3 C39.8,553.4 39.4,552.8 38.6,552.8 C37.8,552.8 37.4,553.3 37.4,554.3 C37.4,555.3 37.9,555.8 38.6,555.8 C39.3,555.8 39.8,555.3 39.8,554.3 Z M42.3,560.9 C42.3,559.2 43.7,557.9 45.4,557.9 C47.1,557.9 48.5,559.1 48.5,560.8 C48.5,562.5 47.2,563.8 45.4,563.8 C43.6,563.8 42.3,562.6 42.3,560.9 Z M46.5,560.8 C46.5,559.9 46.1,559.4 45.3,559.4 C44.6,559.4 44.1,559.9 44.1,560.9 C44.1,561.9 44.6,562.4 45.3,562.4 C46.1,562.3 46.5,561.8 46.5,560.8 Z M9.6,630 L12.1,630 C12.3,630.8 12.8,631.4 13.9,631.4 C15.5,631.4 16.3,630.1 16.4,627.6 C15.9,628.5 15,629.1 13.5,629.1 C11.2,629.1 9.4,627.6 9.4,625.2 C9.4,622.7 11.2,621 14.1,621 C17.4,621 19.1,623.3 19.1,626.8 L19.1,627.3 C19.1,631.3 17.3,633.5 14,633.5 C11.4,633.5 9.9,632.2 9.6,630 Z M16.2,625.2 C16.2,623.8 15.3,622.9 14.1,622.9 C12.9,622.9 12.1,623.8 12.1,625.1 C12.1,626.4 12.9,627.3 14.1,627.3 C15.4,627.3 16.2,626.4 16.2,625.2 Z M20.5,627.5 L20.5,626.9 C20.5,623.2 22.7,620.9 25.8,620.9 C28.9,620.9 31.1,623 31.1,626.8 L31.1,627.3 C31.1,631 29.1,633.4 25.8,633.4 C22.5,633.5 20.5,631.2 20.5,627.5 Z M28.3,627.5 L28.3,626.9 C28.3,624.5 27.4,623.1 25.8,623.1 C24.1,623.1 23.2,624.4 23.2,626.9 L23.2,627.5 C23.2,630 24.1,631.3 25.8,631.3 C27.5,631.3 28.3,630 28.3,627.5 Z M35.6,624 C35.6,622.3 37,621 38.7,621 C40.4,621 41.8,622.2 41.8,623.9 C41.8,625.6 40.5,626.9 38.7,626.9 C36.8,627 35.6,625.7 35.6,624 Z M45.3,621.1 L46.8,621.1 L38.7,633.3 L37.2,633.3 L45.3,621.1 Z M39.8,624 C39.8,623.1 39.4,622.5 38.6,622.5 C37.8,622.5 37.4,623 37.4,624 C37.4,625 37.9,625.5 38.6,625.5 C39.3,625.5 39.8,624.9 39.8,624 Z M42.3,630.5 C42.3,628.8 43.7,627.5 45.4,627.5 C47.1,627.5 48.5,628.7 48.5,630.4 C48.5,632.1 47.2,633.4 45.4,633.4 C43.6,633.5 42.3,632.2 42.3,630.5 Z M46.5,630.5 C46.5,629.6 46.1,629.1 45.3,629.1 C44.6,629.1 44.1,629.6 44.1,630.6 C44.1,631.6 44.6,632.1 45.3,632.1 C46.1,631.9 46.5,631.4 46.5,630.5 Z M0.7,695.2 L0.7,693.2 L2.9,693.2 L2.9,685.7 L0.5,687.3 L0.5,684.9 L3.2,683 L5.6,683 L5.6,693.2 L7.6,693.2 L7.6,695.2 L0.7,695.2 L0.7,695.2 Z M8.5,689.4 L8.5,688.8 C8.5,685.1 10.7,682.8 13.8,682.8 C16.9,682.8 19.1,684.9 19.1,688.7 L19.1,689.2 C19.1,692.9 17.1,695.3 13.8,695.3 C10.6,695.3 8.5,693.1 8.5,689.4 Z M16.4,689.3 L16.4,688.7 C16.4,686.3 15.5,684.9 13.9,684.9 C12.2,684.9 11.3,686.2 11.3,688.7 L11.3,689.3 C11.3,691.8 12.2,693.1 13.9,693.1 C15.6,693.2 16.4,691.9 16.4,689.3 Z M20.5,689.4 L20.5,688.8 C20.5,685.1 22.7,682.8 25.8,682.8 C28.9,682.8 31.1,684.9 31.1,688.7 L31.1,689.2 C31.1,692.9 29.1,695.3 25.8,695.3 C22.5,695.3 20.5,693.1 20.5,689.4 Z M28.3,689.3 L28.3,688.7 C28.3,686.3 27.4,684.9 25.8,684.9 C24.1,684.9 23.2,686.2 23.2,688.7 L23.2,689.3 C23.2,691.8 24.1,693.1 25.8,693.1 C27.5,693.2 28.3,691.9 28.3,689.3 Z M35.6,685.9 C35.6,684.2 37,682.9 38.7,682.9 C40.4,682.9 41.8,684.1 41.8,685.8 C41.8,687.5 40.5,688.8 38.7,688.8 C36.8,688.8 35.6,687.6 35.6,685.9 Z M45.3,683 L46.8,683 L38.7,695.2 L37.2,695.2 L45.3,683 Z M39.8,685.8 C39.8,684.9 39.4,684.3 38.6,684.3 C37.8,684.3 37.4,684.8 37.4,685.8 C37.4,686.8 37.9,687.3 38.6,687.3 C39.3,687.3 39.8,686.8 39.8,685.8 Z M42.3,692.3 C42.3,690.6 43.7,689.3 45.4,689.3 C47.1,689.3 48.5,690.5 48.5,692.2 C48.5,693.9 47.2,695.2 45.4,695.2 C43.6,695.3 42.3,694 42.3,692.3 Z M46.5,692.3 C46.5,691.4 46.1,690.9 45.3,690.9 C44.6,690.9 44.1,691.4 44.1,692.4 C44.1,693.4 44.6,693.9 45.3,693.9 C46.1,693.8 46.5,693.2 46.5,692.3 Z" id="Shape" fill="#000000" fill-rule="nonzero"></path>
                <g id="Group" opacity="0.4" transform="translate(58.000000, 0.000000)" fill-rule="nonzero">
                    <rect id="Rectangle" fill="#009FE3" x="0.7" y="0" width="25" height="69.6"></rect>
                    <rect id="Rectangle" fill="#39B5E9" x="0.7" y="69.6" width="25" height="69.6"></rect>
                    <rect id="Rectangle" fill="#73CAF0" x="0.7" y="139.3" width="25" height="69.6"></rect>
                    <rect id="Rectangle" fill="#ACE0F6" x="0.7" y="208.9" width="25" height="69.6"></rect>
                    <rect id="Rectangle" fill="#E5F5FC" x="0.7" y="278.5" width="25" height="69.6"></rect>
                    <rect id="Rectangle" fill="#FFFBC9" x="0.7" y="348.1" width="25" height="69.6"></rect>
                    <rect id="Rectangle" fill="#FFF897" x="0.7" y="417.8" width="25" height="69.6"></rect>
                    <rect id="Rectangle" fill="#FFF465" x="0.7" y="487.4" width="25" height="69.6"></rect>
                    <rect id="Rectangle" fill="#FFF132" x="0.7" y="557" width="25" height="69.6"></rect>
                    <rect id="Rectangle" fill="#FFED00" x="0.7" y="626.7" width="25" height="69.6"></rect>
                </g>
                <line x1="84.6" y1="348.1" x2="58.7" y2="348.1" id="Path" stroke="#808080" stroke-width="2" stroke-dasharray="2"></line>
            </g>
        </g>
    </g>
</svg>