<?xml version="1.0" encoding="UTF-8"?>
<svg width="64px" height="696px" viewBox="0 0 64 696" version="1.1" xmlns="http://www.w3.org/2000/svg" xmlns:xlink="http://www.w3.org/1999/xlink">
    <title>Artboard</title>
    <defs>
        <rect id="path-1" x="0" y="0" width="65" height="696"></rect>
        <path d="M6.104,693.02 L6.104,691.06 L7.602,691.06 L7.602,690.094 L6.104,690.094 L6.104,683.64 L5.068,683.64 L5.068,690.094 L1.582,690.094 C2.73,688.694 3.08,687.14 3.08,685.698 C3.08,684.508 2.856,683.402 2.632,682.52 L1.624,682.744 C1.904,683.696 2.044,684.634 2.044,685.922 C2.044,687.49 1.414,688.96 0.392,690.234 L0.392,691.06 L5.068,691.06 L5.068,693.02 L6.104,693.02 Z M14.826,693.02 L14.826,692.054 L9.758,692.054 C10.416,688.442 15.078,690.262 15.078,686.44 C15.078,684.494 13.818,683.5 11.928,683.5 C10.01,683.5 8.708,684.634 8.708,687.056 L9.842,687.056 C9.842,685.418 10.43,684.592 11.928,684.592 C13.314,684.592 13.944,685.348 13.944,686.482 C13.944,689.688 8.89,687.35 8.54,693.02 L14.826,693.02 Z" id="path-3"></path>
        <path d="M23.268,687.098 C24.346,687.098 25.088,686.314 25.088,685.236 C25.088,684.214 24.304,683.5 23.268,683.5 C22.246,683.5 21.49,684.228 21.49,685.236 C21.49,686.314 22.19,687.098 23.268,687.098 Z M23.268,686.258 C22.722,686.258 22.358,685.838 22.358,685.264 C22.358,684.732 22.75,684.34 23.268,684.34 C23.814,684.34 24.22,684.718 24.22,685.264 C24.22,685.838 23.828,686.258 23.268,686.258 Z" id="path-4"></path>
        <polygon id="path-5" points="30.874 693.02 30.874 692.054 29.446 692.054 29.446 684.55 32.61 693.02 34.22 693.02 34.22 684.606 35.76 684.606 35.76 683.64 31.77 683.64 31.77 684.606 33.184 684.606 33.184 691.928 30.16 683.64 26.87 683.64 26.87 684.606 28.41 684.606 28.41 692.054 26.87 692.054 26.87 693.02"></polygon>
        <path d="M6.104,622.94 L6.104,620.98 L7.602,620.98 L7.602,620.014 L6.104,620.014 L6.104,613.56 L5.068,613.56 L5.068,620.014 L1.582,620.014 C2.73,618.614 3.08,617.06 3.08,615.618 C3.08,614.428 2.856,613.322 2.632,612.44 L1.624,612.664 C1.904,613.616 2.044,614.554 2.044,615.842 C2.044,617.41 1.414,618.88 0.392,620.154 L0.392,620.98 L5.068,620.98 L5.068,622.94 L6.104,622.94 Z M8.288,623.794 C12.628,622.408 14.854,621.4 14.854,618.88 C14.854,617.564 13.874,616.57 12.558,616.57 C12.334,616.57 12.124,616.598 11.9,616.654 L14.098,614.372 L14.098,613.56 L8.372,613.56 L8.372,614.526 L12.656,614.526 L9.758,617.69 L10.318,618.278 C10.92,617.676 11.55,617.466 12.264,617.466 C13.132,617.466 13.762,618.054 13.762,618.908 C13.762,620.686 12.152,621.666 8.008,622.856 L8.288,623.794 Z" id="path-6"></path>
        <path d="M23.808,617.018 C24.886,617.018 25.628,616.234 25.628,615.156 C25.628,614.134 24.844,613.42 23.808,613.42 C22.786,613.42 22.03,614.148 22.03,615.156 C22.03,616.234 22.73,617.018 23.808,617.018 Z M23.808,616.178 C23.262,616.178 22.898,615.758 22.898,615.184 C22.898,614.652 23.29,614.26 23.808,614.26 C24.354,614.26 24.76,614.638 24.76,615.184 C24.76,615.758 24.368,616.178 23.808,616.178 Z" id="path-7"></path>
        <polygon id="path-8" points="31.414 622.94 31.414 621.974 29.986 621.974 29.986 614.47 33.15 622.94 34.76 622.94 34.76 614.526 36.3 614.526 36.3 613.56 32.31 613.56 32.31 614.526 33.724 614.526 33.724 621.848 30.7 613.56 27.41 613.56 27.41 614.526 28.95 614.526 28.95 621.974 27.41 621.974 27.41 622.94"></polygon>
        <path d="M6.104,545.95 L6.104,543.99 L7.602,543.99 L7.602,543.024 L6.104,543.024 L6.104,536.57 L5.068,536.57 L5.068,543.024 L1.582,543.024 C2.73,541.624 3.08,540.07 3.08,538.628 C3.08,537.438 2.856,536.332 2.632,535.45 L1.624,535.674 C1.904,536.626 2.044,537.564 2.044,538.852 C2.044,540.42 1.414,541.89 0.392,543.164 L0.392,543.99 L5.068,543.99 L5.068,545.95 L6.104,545.95 Z M13.986,545.95 L13.986,543.99 L15.484,543.99 L15.484,543.024 L13.986,543.024 L13.986,536.57 L12.95,536.57 L12.95,543.024 L9.464,543.024 C10.612,541.624 10.962,540.07 10.962,538.628 C10.962,537.438 10.738,536.332 10.514,535.45 L9.506,535.674 C9.786,536.626 9.926,537.564 9.926,538.852 C9.926,540.42 9.296,541.89 8.274,543.164 L8.274,543.99 L12.95,543.99 L12.95,545.95 L13.986,545.95 Z" id="path-9"></path>
        <path d="M23.898,540.028 C24.976,540.028 25.718,539.244 25.718,538.166 C25.718,537.144 24.934,536.43 23.898,536.43 C22.876,536.43 22.12,537.158 22.12,538.166 C22.12,539.244 22.82,540.028 23.898,540.028 Z M23.898,539.188 C23.352,539.188 22.988,538.768 22.988,538.194 C22.988,537.662 23.38,537.27 23.898,537.27 C24.444,537.27 24.85,537.648 24.85,538.194 C24.85,538.768 24.458,539.188 23.898,539.188 Z" id="path-10"></path>
        <polygon id="path-11" points="31.504 545.95 31.504 544.984 30.076 544.984 30.076 537.48 33.24 545.95 34.85 545.95 34.85 537.536 36.39 537.536 36.39 536.57 32.4 536.57 32.4 537.536 33.814 537.536 33.814 544.858 30.79 536.57 27.5 536.57 27.5 537.536 29.04 537.536 29.04 544.984 27.5 544.984 27.5 545.95"></polygon>
        <path d="M6.104,468.96 L6.104,467 L7.602,467 L7.602,466.034 L6.104,466.034 L6.104,459.58 L5.068,459.58 L5.068,466.034 L1.582,466.034 C2.73,464.634 3.08,463.08 3.08,461.638 C3.08,460.448 2.856,459.342 2.632,458.46 L1.624,458.684 C1.904,459.636 2.044,460.574 2.044,461.862 C2.044,463.43 1.414,464.9 0.392,466.174 L0.392,467 L5.068,467 L5.068,468.96 L6.104,468.96 Z M8.54,469.814 C12.586,468.456 14.686,467.532 14.686,465.138 C14.686,463.752 13.552,462.688 12.082,462.688 C11.074,462.688 10.5,462.884 9.828,463.304 L9.828,460.546 L14.518,460.546 L14.518,459.58 L8.792,459.58 L8.792,464.48 L9.45,464.48 C10.052,464.06 10.766,463.626 11.872,463.626 C12.964,463.626 13.594,464.228 13.594,465.18 C13.594,466.846 12.082,467.714 8.26,468.876 L8.54,469.814 Z" id="path-12"></path>
        <path d="M23.398,463.038 C24.476,463.038 25.218,462.254 25.218,461.176 C25.218,460.154 24.434,459.44 23.398,459.44 C22.376,459.44 21.62,460.168 21.62,461.176 C21.62,462.254 22.32,463.038 23.398,463.038 Z M23.398,462.198 C22.852,462.198 22.488,461.778 22.488,461.204 C22.488,460.672 22.88,460.28 23.398,460.28 C23.944,460.28 24.35,460.658 24.35,461.204 C24.35,461.778 23.958,462.198 23.398,462.198 Z" id="path-13"></path>
        <polygon id="path-14" points="30.994 468.96 30.994 467.994 29.566 467.994 29.566 460.49 32.73 468.96 34.34 468.96 34.34 460.546 35.88 460.546 35.88 459.58 31.89 459.58 31.89 460.546 33.304 460.546 33.304 467.868 30.28 459.58 26.99 459.58 26.99 460.546 28.53 460.546 28.53 467.994 26.99 467.994 26.99 468.96"></polygon>
        <path d="M6.104,391.98 L6.104,390.02 L7.602,390.02 L7.602,389.054 L6.104,389.054 L6.104,382.6 L5.068,382.6 L5.068,389.054 L1.582,389.054 C2.73,387.654 3.08,386.1 3.08,384.658 C3.08,383.468 2.856,382.362 2.632,381.48 L1.624,381.704 C1.904,382.656 2.044,383.594 2.044,384.882 C2.044,386.45 1.414,387.92 0.392,389.194 L0.392,390.02 L5.068,390.02 L5.068,391.98 L6.104,391.98 Z M11.83,392.12 C13.79,392.12 15.218,390.72 15.218,388.802 C15.218,386.912 13.986,385.54 12.278,385.54 C11.2,385.54 10.374,385.988 9.8,386.842 C10.318,384.98 11.76,383.412 14.616,382.81 L14.364,381.83 C10.304,382.754 8.596,385.61 8.596,388.41 C8.596,390.566 9.954,392.12 11.83,392.12 Z M11.998,391.042 C10.668,391.042 9.702,390.076 9.702,388.746 C9.702,387.458 10.668,386.534 11.998,386.534 C13.244,386.534 14.14,387.458 14.14,388.746 C14.14,390.076 13.244,391.042 11.998,391.042 Z" id="path-15"></path>
        <path d="M23.898,386.058 C24.976,386.058 25.718,385.274 25.718,384.196 C25.718,383.174 24.934,382.46 23.898,382.46 C22.876,382.46 22.12,383.188 22.12,384.196 C22.12,385.274 22.82,386.058 23.898,386.058 Z M23.898,385.218 C23.352,385.218 22.988,384.798 22.988,384.224 C22.988,383.692 23.38,383.3 23.898,383.3 C24.444,383.3 24.85,383.678 24.85,384.224 C24.85,384.798 24.458,385.218 23.898,385.218 Z" id="path-16"></path>
        <polygon id="path-17" points="31.504 391.98 31.504 391.014 30.076 391.014 30.076 383.51 33.24 391.98 34.85 391.98 34.85 383.566 36.39 383.566 36.39 382.6 32.4 382.6 32.4 383.566 33.814 383.566 33.814 390.888 30.79 382.6 27.5 382.6 27.5 383.566 29.04 383.566 29.04 391.014 27.5 391.014 27.5 391.98"></polygon>
        <path d="M6.104,314.99 L6.104,313.03 L7.602,313.03 L7.602,312.064 L6.104,312.064 L6.104,305.61 L5.068,305.61 L5.068,312.064 L1.582,312.064 C2.73,310.664 3.08,309.11 3.08,307.668 C3.08,306.478 2.856,305.372 2.632,304.49 L1.624,304.714 C1.904,305.666 2.044,306.604 2.044,307.892 C2.044,309.46 1.414,310.93 0.392,312.204 L0.392,313.03 L5.068,313.03 L5.068,314.99 L6.104,314.99 Z" id="path-18"></path>
        <path d="M14.06,315.634 C14.172,311.238 15.418,308.746 17.994,306.338 L17.994,305.61 L11.078,305.61 L11.078,307.906 L12.044,307.906 L12.044,306.576 L16.482,306.576 C14.116,308.956 13.052,311.504 13.024,315.634 L14.06,315.634 Z" id="path-19"></path>
        <path d="M22.518,309.068 C23.596,309.068 24.338,308.284 24.338,307.206 C24.338,306.184 23.554,305.47 22.518,305.47 C21.496,305.47 20.74,306.198 20.74,307.206 C20.74,308.284 21.44,309.068 22.518,309.068 Z M22.518,308.228 C21.972,308.228 21.608,307.808 21.608,307.234 C21.608,306.702 22,306.31 22.518,306.31 C23.064,306.31 23.47,306.688 23.47,307.234 C23.47,307.808 23.078,308.228 22.518,308.228 Z" id="path-20"></path>
        <polygon id="path-21" points="30.114 314.99 30.114 314.024 28.686 314.024 28.686 306.52 31.85 314.99 33.46 314.99 33.46 306.576 35 306.576 35 305.61 31.01 305.61 31.01 306.576 32.424 306.576 32.424 313.898 29.4 305.61 26.11 305.61 26.11 306.576 27.65 306.576 27.65 314.024 26.11 314.024 26.11 314.99"></polygon>
        <path d="M6.104,238 L6.104,236.04 L7.602,236.04 L7.602,235.074 L6.104,235.074 L6.104,228.62 L5.068,228.62 L5.068,235.074 L1.582,235.074 C2.73,233.674 3.08,232.12 3.08,230.678 C3.08,229.488 2.856,228.382 2.632,227.5 L1.624,227.724 C1.904,228.676 2.044,229.614 2.044,230.902 C2.044,232.47 1.414,233.94 0.392,235.214 L0.392,236.04 L5.068,236.04 L5.068,238 L6.104,238 Z" id="path-22"></path>
        <path d="M14.624,238.14 C16.388,238.14 17.774,237.02 17.774,235.256 C17.774,234.122 17.214,233.268 16.332,232.792 C17.032,232.344 17.452,231.574 17.452,230.608 C17.452,228.984 16.248,227.878 14.624,227.878 C13.014,227.878 11.838,228.998 11.838,230.608 C11.838,231.56 12.258,232.33 12.93,232.792 C12.048,233.254 11.474,234.122 11.474,235.256 C11.474,237.034 12.846,238.14 14.624,238.14 Z M14.624,232.386 C13.588,232.386 12.916,231.644 12.916,230.608 C12.916,229.628 13.644,228.928 14.624,228.928 C15.618,228.928 16.374,229.614 16.374,230.608 C16.374,231.644 15.66,232.386 14.624,232.386 Z M14.624,237.118 C13.462,237.118 12.552,236.418 12.552,235.256 C12.552,234.066 13.434,233.282 14.624,233.282 C15.814,233.282 16.724,234.066 16.724,235.256 C16.724,236.418 15.786,237.118 14.624,237.118 Z" id="path-23"></path>
        <path d="M23.598,232.078 C24.676,232.078 25.418,231.294 25.418,230.216 C25.418,229.194 24.634,228.48 23.598,228.48 C22.576,228.48 21.82,229.208 21.82,230.216 C21.82,231.294 22.52,232.078 23.598,232.078 Z M23.598,231.238 C23.052,231.238 22.688,230.818 22.688,230.244 C22.688,229.712 23.08,229.32 23.598,229.32 C24.144,229.32 24.55,229.698 24.55,230.244 C24.55,230.818 24.158,231.238 23.598,231.238 Z" id="path-24"></path>
        <polygon id="path-25" points="31.194 238 31.194 237.034 29.766 237.034 29.766 229.53 32.93 238 34.54 238 34.54 229.586 36.08 229.586 36.08 228.62 32.09 228.62 32.09 229.586 33.504 229.586 33.504 236.908 30.48 228.62 27.19 228.62 27.19 229.586 28.73 229.586 28.73 237.034 27.19 237.034 27.19 238"></polygon>
        <path d="M6.104,161.01 L6.104,159.05 L7.602,159.05 L7.602,158.084 L6.104,158.084 L6.104,151.63 L5.068,151.63 L5.068,158.084 L1.582,158.084 C2.73,156.684 3.08,155.13 3.08,153.688 C3.08,152.498 2.856,151.392 2.632,150.51 L1.624,150.734 C1.904,151.686 2.044,152.624 2.044,153.912 C2.044,155.48 1.414,156.95 0.392,158.224 L0.392,159.05 L5.068,159.05 L5.068,161.01 L6.104,161.01 Z" id="path-26"></path>
        <path d="M12.258,161.794 C16.318,160.87 18.026,158.014 18.026,155.214 C18.026,153.058 16.668,151.504 14.792,151.504 C12.832,151.504 11.404,152.904 11.404,154.822 C11.404,156.712 12.636,158.084 14.344,158.084 C15.422,158.084 16.248,157.636 16.822,156.782 C16.304,158.644 14.862,160.212 12.006,160.814 L12.258,161.794 Z M14.624,157.09 C13.378,157.09 12.482,156.166 12.482,154.878 C12.482,153.548 13.378,152.582 14.624,152.582 C15.954,152.582 16.92,153.548 16.92,154.878 C16.92,156.166 15.954,157.09 14.624,157.09 Z" id="path-27"></path>
        <path d="M23.808,155.088 C24.886,155.088 25.628,154.304 25.628,153.226 C25.628,152.204 24.844,151.49 23.808,151.49 C22.786,151.49 22.03,152.218 22.03,153.226 C22.03,154.304 22.73,155.088 23.808,155.088 Z M23.808,154.248 C23.262,154.248 22.898,153.828 22.898,153.254 C22.898,152.722 23.29,152.33 23.808,152.33 C24.354,152.33 24.76,152.708 24.76,153.254 C24.76,153.828 24.368,154.248 23.808,154.248 Z" id="path-28"></path>
        <polygon id="path-29" points="31.414 161.01 31.414 160.044 29.986 160.044 29.986 152.54 33.15 161.01 34.76 161.01 34.76 152.596 36.3 152.596 36.3 151.63 32.31 151.63 32.31 152.596 33.724 152.596 33.724 159.918 30.7 151.63 27.41 151.63 27.41 152.596 28.95 152.596 28.95 160.044 27.41 160.044 27.41 161.01"></polygon>
        <path d="M0.658,84.874 C4.704,83.516 6.804,82.592 6.804,80.198 C6.804,78.812 5.67,77.748 4.2,77.748 C3.192,77.748 2.618,77.944 1.946,78.364 L1.946,75.606 L6.636,75.606 L6.636,74.64 L0.91,74.64 L0.91,79.54 L1.568,79.54 C2.17,79.12 2.884,78.686 3.99,78.686 C5.082,78.686 5.712,79.288 5.712,80.24 C5.712,81.906 4.2,82.774 0.378,83.936 L0.658,84.874 Z" id="path-30"></path>
        <path d="M14.034,84.16 C15.938,84.16 17.212,82.844 17.212,79.302 C17.212,75.886 15.938,74.5 14.034,74.5 C12.144,74.5 10.87,75.886 10.87,79.302 C10.87,82.844 12.144,84.16 14.034,84.16 Z M14.034,83.082 C12.578,83.082 12.004,81.752 12.004,79.302 C12.004,76.796 12.578,75.592 14.034,75.592 C15.504,75.592 16.078,76.796 16.078,79.302 C16.078,81.752 15.504,83.082 14.034,83.082 Z" id="path-31"></path>
        <path d="M24.338,78.098 C25.416,78.098 26.158,77.314 26.158,76.236 C26.158,75.214 25.374,74.5 24.338,74.5 C23.316,74.5 22.56,75.228 22.56,76.236 C22.56,77.314 23.26,78.098 24.338,78.098 Z M24.338,77.258 C23.792,77.258 23.428,76.838 23.428,76.264 C23.428,75.732 23.82,75.34 24.338,75.34 C24.884,75.34 25.29,75.718 25.29,76.264 C25.29,76.838 24.898,77.258 24.338,77.258 Z" id="path-32"></path>
        <polygon id="path-33" points="31.934 84.02 31.934 83.054 30.506 83.054 30.506 75.55 33.67 84.02 35.28 84.02 35.28 75.606 36.82 75.606 36.82 74.64 32.83 74.64 32.83 75.606 34.244 75.606 34.244 82.928 31.22 74.64 27.93 74.64 27.93 75.606 29.47 75.606 29.47 83.054 27.93 83.054 27.93 84.02"></polygon>
        <path d="M0.658,11.904 C4.704,10.546 6.804,9.622 6.804,7.228 C6.804,5.842 5.67,4.778 4.2,4.778 C3.192,4.778 2.618,4.974 1.946,5.394 L1.946,2.636 L6.636,2.636 L6.636,1.67 L0.91,1.67 L0.91,6.57 L1.568,6.57 C2.17,6.15 2.884,5.716 3.99,5.716 C5.082,5.716 5.712,6.318 5.712,7.27 C5.712,8.936 4.2,9.804 0.378,10.966 L0.658,11.904 Z" id="path-34"></path>
        <polygon id="path-35" points="15.216 11.05 15.216 10.084 13.55 10.084 13.55 1.67 10.288 1.67 10.288 2.636 12.514 2.636 12.514 10.084 10.582 10.084 10.582 11.05"></polygon>
        <path d="M20.808,5.128 C21.886,5.128 22.628,4.344 22.628,3.266 C22.628,2.244 21.844,1.53 20.808,1.53 C19.786,1.53 19.03,2.258 19.03,3.266 C19.03,4.344 19.73,5.128 20.808,5.128 Z M20.808,4.288 C20.262,4.288 19.898,3.868 19.898,3.294 C19.898,2.762 20.29,2.37 20.808,2.37 C21.354,2.37 21.76,2.748 21.76,3.294 C21.76,3.868 21.368,4.288 20.808,4.288 Z" id="path-36"></path>
        <polygon id="path-37" points="28.404 11.05 28.404 10.084 26.976 10.084 26.976 2.58 30.14 11.05 31.75 11.05 31.75 2.636 33.29 2.636 33.29 1.67 29.3 1.67 29.3 2.636 30.714 2.636 30.714 9.958 27.69 1.67 24.4 1.67 24.4 2.636 25.94 2.636 25.94 10.084 24.4 10.084 24.4 11.05"></polygon>
    </defs>
    <g id="Artboard" stroke="none" stroke-width="1" fill="none" fill-rule="evenodd">
        <g id="latitude" transform="translate(-1.000000, 0.000000)">
            <mask id="mask-2" fill="white">
                <use xlink:href="#path-1"></use>
            </mask>
            <g id="Rectangle"></g>
            <g id="jauge-latitude" mask="url(#mask-2)">
                <g transform="translate(1.000000, 0.000000)">
                    <g id="Group" opacity="0.35" stroke="none" stroke-width="1" fill-rule="evenodd" transform="translate(51.000000, 0.000000)">
                        <rect id="Rectangle" fill="#009FE3" fill-rule="nonzero" x="0.2" y="0" width="12.9" height="38.5"></rect>
                        <rect id="Rectangle" fill="#19A9E6" fill-rule="nonzero" x="0.2" y="38.6" width="12.9" height="38.5"></rect>
                        <rect id="Rectangle" fill="#33B2E9" fill-rule="nonzero" x="0.2" y="77.3" width="12.9" height="38.5"></rect>
                        <rect id="Rectangle" fill="#4CBCEB" fill-rule="nonzero" x="0.2" y="115.9" width="12.9" height="38.5"></rect>
                        <rect id="Rectangle" fill="#66C5EE" fill-rule="nonzero" x="0.2" y="154.5" width="12.9" height="38.6"></rect>
                        <rect id="Rectangle" fill="#80CFF1" fill-rule="nonzero" x="0.2" y="193.2" width="12.9" height="38.6"></rect>
                        <rect id="Rectangle" fill="#99D9F4" fill-rule="nonzero" x="0.2" y="231.8" width="12.9" height="38.6"></rect>
                        <rect id="Rectangle" fill="#B2E2F7" fill-rule="nonzero" x="0.2" y="270.4" width="12.9" height="38.5"></rect>
                        <rect id="Rectangle" fill="#CCECF9" fill-rule="nonzero" x="0.2" y="309.1" width="12.9" height="38.5"></rect>
                        <rect id="Rectangle" fill="#FFFBCC" fill-rule="nonzero" x="0.2" y="348.4" width="12.9" height="38.5"></rect>
                        <rect id="Rectangle" fill="#FFFAB2" fill-rule="nonzero" x="0.2" y="387" width="12.9" height="38.5"></rect>
                        <rect id="Rectangle" fill="#FFF899" fill-rule="nonzero" x="0.2" y="425.7" width="12.9" height="38.5"></rect>
                        <rect id="Rectangle" fill="#FFF680" fill-rule="nonzero" x="0.2" y="464.3" width="12.9" height="38.5"></rect>
                        <rect id="Rectangle" fill="#FFF466" fill-rule="nonzero" x="0.2" y="502.9" width="12.9" height="38.5"></rect>
                        <rect id="Rectangle" fill="#FFF24C" fill-rule="nonzero" x="0.2" y="541.6" width="12.9" height="38.5"></rect>
                        <rect id="Rectangle" fill="#FFF133" fill-rule="nonzero" x="0.2" y="580.2" width="12.9" height="38.5"></rect>
                        <rect id="Rectangle" fill="#FFEF19" fill-rule="nonzero" x="0.2" y="618.8" width="12.9" height="38.5"></rect>
                        <rect id="Rectangle" fill="#FFED00" fill-rule="nonzero" x="0.2" y="657.5" width="12.9" height="38.5"></rect>
                    </g>
                    <g id="Group" stroke="none" stroke-width="1" fill-rule="evenodd" transform="translate(0.000000, 2.000000)">
                        <g id="42" fill-rule="nonzero">
                            <use fill="#000000" xlink:href="#path-3"></use>
                            <use fill="#A6A6A6" xlink:href="#path-3"></use>
                        </g>
                        <g id="°" fill-rule="nonzero">
                            <use fill="#000000" xlink:href="#path-4"></use>
                            <use fill="#A6A6A6" xlink:href="#path-4"></use>
                        </g>
                        <g id="N" fill-rule="nonzero">
                            <use fill="#000000" xlink:href="#path-5"></use>
                            <use fill="#A6A6A6" xlink:href="#path-5"></use>
                        </g>
                        <g id="43" fill-rule="nonzero">
                            <use fill="#000000" xlink:href="#path-6"></use>
                            <use fill="#A6A6A6" xlink:href="#path-6"></use>
                        </g>
                        <g id="°" fill-rule="nonzero">
                            <use fill="#000000" xlink:href="#path-7"></use>
                            <use fill="#A6A6A6" xlink:href="#path-7"></use>
                        </g>
                        <g id="N" fill-rule="nonzero">
                            <use fill="#000000" xlink:href="#path-8"></use>
                            <use fill="#A6A6A6" xlink:href="#path-8"></use>
                        </g>
                        <g id="44" fill-rule="nonzero">
                            <use fill="#000000" xlink:href="#path-9"></use>
                            <use fill="#A6A6A6" xlink:href="#path-9"></use>
                        </g>
                        <g id="°" fill-rule="nonzero">
                            <use fill="#000000" xlink:href="#path-10"></use>
                            <use fill="#A6A6A6" xlink:href="#path-10"></use>
                        </g>
                        <g id="N" fill-rule="nonzero">
                            <use fill="#000000" xlink:href="#path-11"></use>
                            <use fill="#A6A6A6" xlink:href="#path-11"></use>
                        </g>
                        <g id="45" fill-rule="nonzero">
                            <use fill="#000000" xlink:href="#path-12"></use>
                            <use fill="#A6A6A6" xlink:href="#path-12"></use>
                        </g>
                        <g id="°" fill-rule="nonzero">
                            <use fill="#000000" xlink:href="#path-13"></use>
                            <use fill="#A6A6A6" xlink:href="#path-13"></use>
                        </g>
                        <g id="N" fill-rule="nonzero">
                            <use fill="#000000" xlink:href="#path-14"></use>
                            <use fill="#A6A6A6" xlink:href="#path-14"></use>
                        </g>
                        <g id="46" fill-rule="nonzero">
                            <use fill="#000000" xlink:href="#path-15"></use>
                            <use fill="#A6A6A6" xlink:href="#path-15"></use>
                        </g>
                        <g id="°" fill-rule="nonzero">
                            <use fill="#000000" xlink:href="#path-16"></use>
                            <use fill="#A6A6A6" xlink:href="#path-16"></use>
                        </g>
                        <g id="N" fill-rule="nonzero">
                            <use fill="#000000" xlink:href="#path-17"></use>
                            <use fill="#A6A6A6" xlink:href="#path-17"></use>
                        </g>
                        <g id="4" fill-rule="nonzero">
                            <use fill="#000000" xlink:href="#path-18"></use>
                            <use fill="#A6A6A6" xlink:href="#path-18"></use>
                        </g>
                        <g id="7" fill-rule="nonzero">
                            <use fill="#000000" xlink:href="#path-19"></use>
                            <use fill="#A6A6A6" xlink:href="#path-19"></use>
                        </g>
                        <g id="°" fill-rule="nonzero">
                            <use fill="#000000" xlink:href="#path-20"></use>
                            <use fill="#A6A6A6" xlink:href="#path-20"></use>
                        </g>
                        <g id="N" fill-rule="nonzero">
                            <use fill="#000000" xlink:href="#path-21"></use>
                            <use fill="#A6A6A6" xlink:href="#path-21"></use>
                        </g>
                        <g id="4" fill-rule="nonzero">
                            <use fill="#000000" xlink:href="#path-22"></use>
                            <use fill="#A6A6A6" xlink:href="#path-22"></use>
                        </g>
                        <g id="8" fill-rule="nonzero">
                            <use fill="#000000" xlink:href="#path-23"></use>
                            <use fill="#A6A6A6" xlink:href="#path-23"></use>
                        </g>
                        <g id="°" fill-rule="nonzero">
                            <use fill="#000000" xlink:href="#path-24"></use>
                            <use fill="#A6A6A6" xlink:href="#path-24"></use>
                        </g>
                        <g id="N" fill-rule="nonzero">
                            <use fill="#000000" xlink:href="#path-25"></use>
                            <use fill="#A6A6A6" xlink:href="#path-25"></use>
                        </g>
                        <g id="4" fill-rule="nonzero">
                            <use fill="#000000" xlink:href="#path-26"></use>
                            <use fill="#A6A6A6" xlink:href="#path-26"></use>
                        </g>
                        <g id="9" fill-rule="nonzero">
                            <use fill="#000000" xlink:href="#path-27"></use>
                            <use fill="#A6A6A6" xlink:href="#path-27"></use>
                        </g>
                        <g id="°" fill-rule="nonzero">
                            <use fill="#000000" xlink:href="#path-28"></use>
                            <use fill="#A6A6A6" xlink:href="#path-28"></use>
                        </g>
                        <g id="N" fill-rule="nonzero">
                            <use fill="#000000" xlink:href="#path-29"></use>
                            <use fill="#A6A6A6" xlink:href="#path-29"></use>
                        </g>
                        <g id="5" fill-rule="nonzero">
                            <use fill="#000000" xlink:href="#path-30"></use>
                            <use fill="#A6A6A6" xlink:href="#path-30"></use>
                        </g>
                        <g id="0" fill-rule="nonzero">
                            <use fill="#000000" xlink:href="#path-31"></use>
                            <use fill="#A6A6A6" xlink:href="#path-31"></use>
                        </g>
                        <g id="°" fill-rule="nonzero">
                            <use fill="#000000" xlink:href="#path-32"></use>
                            <use fill="#A6A6A6" xlink:href="#path-32"></use>
                        </g>
                        <g id="N" fill-rule="nonzero">
                            <use fill="#000000" xlink:href="#path-33"></use>
                            <use fill="#A6A6A6" xlink:href="#path-33"></use>
                        </g>
                        <g id="5" fill-rule="nonzero">
                            <use fill="#000000" xlink:href="#path-34"></use>
                            <use fill="#A6A6A6" xlink:href="#path-34"></use>
                        </g>
                        <g id="1" fill-rule="nonzero">
                            <use fill="#000000" xlink:href="#path-35"></use>
                            <use fill="#A6A6A6" xlink:href="#path-35"></use>
                        </g>
                        <g id="°" fill-rule="nonzero">
                            <use fill="#000000" xlink:href="#path-36"></use>
                            <use fill="#A6A6A6" xlink:href="#path-36"></use>
                        </g>
                        <g id="N" fill-rule="nonzero">
                            <use fill="#000000" xlink:href="#path-37"></use>
                            <use fill="#A6A6A6" xlink:href="#path-37"></use>
                        </g>
                    </g>
                    <line x1="64.1" y1="348" x2="51.2" y2="348" id="Path" stroke="#808080" stroke-width="2" stroke-dasharray="2"></line>
                </g>
            </g>
        </g>
    </g>
</svg>