<?xml version="1.0" encoding="utf-8"?>
<!-- Generator: Adobe Illustrator 24.2.0, SVG Export Plug-In . SVG Version: 6.00 Build 0)  -->
<svg version="1.1" id="logosud" xmlns="http://www.w3.org/2000/svg" xmlns:xlink="http://www.w3.org/1999/xlink" x="0px" y="0px"
	 viewBox="0 0 169.85 72.57" style="enable-background:new 0 0 169.85 72.57;" xml:space="preserve">
<style type="text/css">
	.st0{fill:#F7B2D8;}
	.st1{fill:#FCE5F2;}
	.st2{fill:#ED4CA5;}
	.st3{fill:#F280BE;}
	.st4{fill:#E6007E;}
	.st5{fill:#383838;}
	.st6{fill:#FFFFFF;}
</style>
<polygon class="st0" points="169.85,30.81 84.91,0 0,30.81 84.91,61.95 "/>
<polygon class="st1" points="148.54,30.85 84.92,7.77 21.31,30.85 84.92,54.18 "/>
<polygon class="st2" points="0,30.81 0,41.42 84.91,72.57 169.85,41.42 169.85,30.81 84.91,61.95 "/>
<path class="st3" d="M32.5,34.95l-11.19-4.1L84.92,7.77l63.62,23.08l-11.19,4.1L84.92,15.73L32.5,34.95z M89.32,35
	c-1.21,1.06-2.79,1.6-4.39,1.5c-1.35,0.05-2.69-0.3-3.85-1l0,0L81,37.36l0,0L84.93,52l4.39-15.08l0,0V35z"/>
<path class="st4" d="M89.14,32.4L89.14,32.4l-4.21-14.67L81,32.14l0,0c1.16-0.74,2.52-1.1,3.9-1.06C86.43,31,87.93,31.47,89.14,32.4
	z"/>
<path class="st5" d="M89.14,32.4c-1.2-0.92-2.69-1.39-4.21-1.32c-1.39-0.05-2.76,0.32-3.93,1.06c-0.58,0.36-0.95,0.97-1,1.65l0,0
	c0.05,0.71,0.45,1.34,1.07,1.69c1.16,0.7,2.5,1.05,3.85,1c1.6,0.1,3.19-0.43,4.4-1.48c0.32-0.33,0.51-0.76,0.53-1.22
	C89.82,33.24,89.56,32.74,89.14,32.4z M84.93,35.46c-0.43,0-0.86-0.05-1.28-0.16c-1.05-0.27-1.77-0.84-1.77-1.53
	c0-0.07,0-0.14,0-0.21c0.14-0.6,0.85-1.11,1.84-1.34c0.88-0.21,1.81-0.18,2.68,0.08c0.71,0.12,1.31,0.59,1.58,1.26
	c0.01,0.07,0.01,0.14,0,0.21c0,0.55-0.5,1.05-1.24,1.36C86.16,35.36,85.55,35.47,84.93,35.46z"/>
<path class="st6" d="M84.93,35.33c-0.42,0-0.84-0.05-1.25-0.15c-1-0.26-1.68-0.8-1.68-1.39c-0.01-0.06-0.01-0.11,0-0.17
	c0.12-0.54,0.78-1,1.73-1.24c0.38-0.08,0.78-0.13,1.17-0.13c0.49,0,0.99,0.07,1.46,0.21c0.64,0.13,1.18,0.56,1.44,1.16
	c0,0.06,0,0.11,0,0.17c0,0.47-0.43,0.92-1.15,1.22C86.1,35.22,85.52,35.33,84.93,35.33z"/>
<path d="M81.08,35.48c-0.62-0.35-1.02-0.98-1.08-1.69v2.15l0,0c0.13,0.59,0.49,1.1,1,1.42l0.06-1.88H81.08z M89.85,33.79
	c-0.02,0.46-0.21,0.89-0.53,1.21l0,0v1.91c0.33-0.32,0.52-0.75,0.53-1.21V33.79z M84.91,32.38c0.48,0,0.97,0.1,1.43,0.23
	c0.73,0.23,1.24,0.63,1.33,1c0,0.05,0,0.09,0,0.14c0,0.4-0.39,0.8-1,1.07c-0.54,0.21-1.13,0.32-1.71,0.31
	c-0.42,0.01-0.83-0.03-1.24-0.13c-0.93-0.24-1.56-0.74-1.56-1.24c0-0.05,0-0.09,0-0.14c0.11-0.47,0.74-0.91,1.62-1.11
	C84.15,32.42,84.53,32.38,84.91,32.38 M84.91,32.06c-0.4,0-0.81,0.05-1.2,0.14c-1,0.23-1.72,0.74-1.86,1.35c0,0.07,0,0.14,0,0.21
	c0,0.69,0.73,1.27,1.79,1.54c0.42,0.11,0.86,0.16,1.29,0.16c0.63,0.01,1.25-0.1,1.83-0.33c0.75-0.31,1.25-0.81,1.25-1.37
	c0.01-0.07,0.01-0.14,0-0.21c-0.27-0.66-0.85-1.14-1.55-1.27c-0.49-0.15-0.99-0.22-1.5-0.22L84.91,32.06z"/>
</svg>
